<svg version="1.1" id="Layer_1" xmlns="http://www.w3.org/2000/svg" xmlns:xlink="http://www.w3.org/1999/xlink" x="0px" y="0px"
	 width="100%" viewBox="0 0 265 192" enable-background="new 0 0 265 192" xml:space="preserve">
<path fill="#5CBFF9" opacity="1.000000" stroke="none" 
	d="
M62.000000,1.000000 
	C78.354225,1.000000 94.708458,1.000000 111.517761,1.364590 
	C108.189590,7.490654 104.500771,13.316893 100.603363,19.000082 
	C92.565659,30.720659 84.441124,42.382042 76.291061,54.024902 
	C74.810394,56.140137 73.301254,58.614639 69.891975,56.517441 
	C69.566597,55.103771 69.322685,54.175785 69.389084,53.122253 
	C70.175453,52.162453 70.657150,51.331352 71.126312,50.493240 
	C71.981087,48.966293 73.874283,46.458851 73.507408,46.065849 
	C71.293182,43.693928 69.504807,39.986942 65.238060,41.161915 
	C62.670033,41.869110 60.111118,42.754940 57.714214,43.906292 
	C53.358952,45.998341 51.415951,50.887962 53.093815,55.253189 
	C53.820484,56.728180 54.539543,57.859638 55.236374,59.398018 
	C55.486923,62.544392 55.759705,65.283852 55.683750,68.018524 
	C54.710915,68.286919 54.086815,68.560097 53.108242,68.823380 
	C43.527237,71.799751 30.421551,91.545547 31.755098,101.192535 
	C32.043976,103.282326 34.563789,105.063728 36.054688,107.228966 
	C36.053333,107.470757 36.128147,107.948517 35.825054,108.113159 
	C34.724010,109.111488 33.803158,109.858704 33.146652,110.791893 
	C24.162579,123.562317 15.277784,136.403412 6.182914,149.094070 
	C4.980228,150.772263 2.752823,151.716080 0.999999,153.000000 
	C1.000000,131.312439 1.000000,109.624878 1.340407,87.407578 
	C2.908452,85.586632 4.320402,84.425323 5.335848,82.984550 
	C18.745411,63.958313 32.157185,44.933060 45.439632,25.818073 
	C51.113739,17.652382 56.488964,9.279005 62.000000,1.000000 
z"/>
<path fill="#5BC6F9" opacity="1.000000" stroke="none" 
	d="
M69.973442,57.003124 
	C73.301254,58.614639 74.810394,56.140137 76.291061,54.024902 
	C84.441124,42.382042 92.565659,30.720659 100.603363,19.000082 
	C104.500771,13.316893 108.189590,7.490654 111.986420,1.364590 
	C130.020889,1.000000 148.041794,1.000000 166.517761,1.364593 
	C166.210556,3.139672 165.452057,4.552211 164.685349,5.960268 
	C162.123978,10.664115 159.559662,15.366359 156.664734,20.247089 
	C134.109421,26.185013 125.452942,42.715572 131.655670,68.756981 
	C125.427391,71.638199 119.047211,74.645920 112.618195,77.545357 
	C107.779831,79.727417 102.878830,81.770615 97.554031,83.862396 
	C94.799484,84.049500 92.367371,83.845940 90.220253,84.532990 
	C85.534805,86.032272 82.983658,84.592171 81.080772,80.059647 
	C78.204575,73.208809 74.781105,66.529488 65.987923,65.742432 
	C67.405037,62.603493 68.689240,59.803310 69.973442,57.003124 
z"/>
<path fill="#5CB8F8" opacity="1.000000" stroke="none" 
	d="
M61.531342,1.000000 
	C56.488964,9.279005 51.113739,17.652382 45.439632,25.818073 
	C32.157185,44.933060 18.745411,63.958313 5.335848,82.984550 
	C4.320402,84.425323 2.908452,85.586632 1.340407,86.938919 
	C1.000000,58.418900 1.000000,29.837799 1.000000,1.000000 
	C21.020163,1.000000 41.041424,1.000000 61.531342,1.000000 
z"/>
<path fill="#5CC5FA" opacity="1.000000" stroke="none" 
	d="
M0.999999,153.468658 
	C2.752823,151.716080 4.980228,150.772263 6.182914,149.094070 
	C15.277784,136.403412 24.162579,123.562317 33.146652,110.791893 
	C33.803158,109.858704 34.724010,109.111488 36.040268,108.077850 
	C36.558571,107.877899 36.935528,107.658272 37.363400,107.675301 
	C40.486725,108.285583 43.182182,108.878830 46.066223,109.513596 
	C43.906540,123.059692 41.937634,136.053925 39.685078,148.998764 
	C39.229633,151.616104 39.546463,153.118423 42.116451,154.222565 
	C41.196606,160.363678 40.437656,166.094162 39.420868,171.778534 
	C39.004246,174.107681 39.561195,175.248947 41.958603,175.646515 
	C40.960152,178.269608 39.971687,180.546036 38.519608,182.886749 
	C29.743797,183.029678 21.431606,183.108322 13.119416,183.186981 
	C13.127264,184.093384 13.135112,184.999786 13.142960,185.906189 
	C21.092493,185.906189 29.042028,185.906189 36.972038,186.272797 
	C34.968342,188.759598 32.984165,190.879791 30.999996,193.000000 
	C21.062923,193.000000 11.125847,193.000000 1.000000,193.000000 
	C1.000000,179.979706 1.000000,166.958511 0.999999,153.468658 
z"/>
<path fill="#59E2FD" opacity="1.000000" stroke="none" 
	d="
M266.000000,78.000000 
	C266.000000,95.687561 266.000000,113.375122 265.659149,131.589203 
	C263.963287,133.272400 262.301239,134.211121 261.301239,135.619812 
	C252.313492,148.281113 243.540085,161.095505 234.472855,173.698822 
	C231.962799,177.187775 231.460541,179.978653 234.576767,182.900635 
	C231.619904,182.902054 229.089386,182.837753 226.465881,182.358902 
	C224.470291,169.957764 222.567673,157.971176 220.538589,145.187897 
	C228.396088,146.630920 229.740875,142.492920 229.597733,136.933578 
	C229.572739,135.962753 229.936157,134.981903 230.572083,134.003922 
	C236.036636,133.348145 241.049271,132.694122 246.145264,131.981750 
	C246.228653,131.923416 246.216660,131.649765 246.216660,131.649765 
	C246.216660,131.649765 245.960312,131.939835 245.497467,131.953903 
	C240.293076,131.559921 235.551559,131.151871 230.819489,130.350647 
	C233.500092,122.182419 236.171234,114.407333 238.984650,106.962296 
	C239.709137,108.391907 240.291351,109.491463 241.069550,110.961174 
	C241.945908,110.032669 242.574936,109.534050 242.993378,108.897079 
	C247.419846,102.158981 251.588486,95.237068 256.299530,88.705788 
	C259.099243,84.824310 262.738312,81.548256 266.000000,78.000000 
z"/>
<path fill="#5AD6FC" opacity="1.000000" stroke="none" 
	d="
M223.000000,1.000002 
	C237.229233,1.000000 251.458450,1.000000 266.000000,1.000000 
	C266.000000,6.683050 266.000000,12.371817 265.659180,18.588217 
	C263.966980,20.267073 262.327118,21.208874 261.313507,22.605267 
	C256.576294,29.131323 252.170761,35.903938 247.284882,42.312603 
	C245.890533,44.141525 243.281525,45.044395 240.933411,46.224724 
	C236.350998,44.362076 231.407425,43.313313 231.470200,37.077328 
	C230.885025,38.518875 230.299866,39.960423 230.089035,40.479786 
	C222.596054,35.729015 215.229462,31.058374 207.934265,26.020676 
	C210.331604,22.254227 212.823883,18.954851 214.942566,15.430876 
	C217.779861,10.711655 220.327820,5.818486 223.000000,1.000002 
z"/>
<path fill="#5ADDFC" opacity="1.000000" stroke="none" 
	d="
M241.229492,46.371918 
	C243.281525,45.044395 245.890533,44.141525 247.284882,42.312603 
	C252.170761,35.903938 256.576294,29.131323 261.313507,22.605267 
	C262.327118,21.208874 263.966980,20.267073 265.659180,19.057926 
	C266.000000,38.354229 266.000000,57.708454 266.000000,77.531342 
	C262.738312,81.548256 259.099243,84.824310 256.299530,88.705788 
	C251.588486,95.237068 247.419846,102.158981 242.993378,108.897079 
	C242.574936,109.534050 241.945908,110.032669 241.069550,110.961174 
	C240.291351,109.491463 239.709137,108.391907 239.022797,106.604553 
	C245.939774,87.404907 245.515762,69.232651 235.333145,51.505505 
	C235.844803,51.228493 236.356461,50.951477 236.868118,50.674461 
	C239.463333,52.167408 242.058548,53.660355 244.653748,55.153301 
	C245.010056,54.972626 245.366348,54.791950 245.722641,54.611275 
	C244.224930,51.864822 242.727203,49.118370 241.229492,46.371918 
z"/>
<path fill="#59E6FE" opacity="1.000000" stroke="none" 
	d="
M235.003098,182.834900 
	C231.460541,179.978653 231.962799,177.187775 234.472855,173.698822 
	C243.540085,161.095505 252.313492,148.281113 261.301239,135.619812 
	C262.301239,134.211121 263.963287,133.272400 265.659149,132.057861 
	C266.000000,152.251373 266.000000,172.502762 266.000000,193.000000 
	C250.313293,193.000000 234.625305,193.000000 218.539078,192.644897 
	C219.392685,191.468369 220.652237,190.658417 221.894318,189.822495 
	C223.270050,188.896591 224.629807,187.946976 226.465576,187.004898 
	C234.332855,187.002090 241.732513,187.079102 249.128296,186.944046 
	C250.826797,186.913025 252.512009,186.153107 254.291931,185.416443 
	C253.240219,184.404388 252.127808,183.158295 250.954834,183.098404 
	C245.646942,182.827332 240.321945,182.891464 235.003098,182.834900 
z"/>
<path fill="#5BCEFB" opacity="1.000000" stroke="none" 
	d="
M222.531342,1.000002 
	C220.327820,5.818486 217.779861,10.711655 214.942566,15.430876 
	C212.823883,18.954851 210.331604,22.254227 207.551620,25.921570 
	C197.831192,23.272635 188.432831,21.870665 178.394012,23.578226 
	C171.384308,20.058918 164.269073,19.572432 156.996475,20.069218 
	C159.559662,15.366359 162.123978,10.664115 164.685349,5.960268 
	C165.452057,4.552211 166.210556,3.139672 166.986420,1.364593 
	C185.354233,1.000000 203.708450,1.000000 222.531342,1.000002 
z"/>
<path fill="#5BCDFB" opacity="1.000000" stroke="none" 
	d="
M31.468653,193.000000 
	C32.984165,190.879791 34.968342,188.759598 37.437729,186.207031 
	C55.944454,185.826523 73.965965,185.878387 91.988922,186.199219 
	C91.992249,186.647476 91.994141,186.826782 91.905792,187.333801 
	C89.877037,189.441010 87.938515,191.220505 86.000000,193.000000 
	C67.979103,193.000000 49.958210,193.000000 31.468653,193.000000 
z"/>
<path fill="#5AD5FC" opacity="1.000000" stroke="none" 
	d="
M86.468658,193.000000 
	C87.938515,191.220505 89.877037,189.441010 92.358795,187.331223 
	C96.278053,186.647339 99.654068,186.293747 103.349640,185.862030 
	C104.101578,185.835800 104.533966,185.887711 105.293396,186.201813 
	C112.081978,186.640442 118.543503,186.816833 125.472656,186.994003 
	C131.625870,186.998306 137.311447,187.001831 142.896515,187.339859 
	C140.530670,189.449585 138.265335,191.224792 136.000000,193.000000 
	C119.645775,193.000000 103.291542,193.000000 86.468658,193.000000 
z"/>
<path fill="#5ADBFC" opacity="1.000000" stroke="none" 
	d="
M136.468658,193.000000 
	C138.265335,191.224792 140.530670,189.449585 143.365509,187.337158 
	C157.958084,186.997925 171.981186,186.995911 186.252899,186.995667 
	C186.501541,186.997421 186.998779,187.003052 186.898071,187.337723 
	C184.531586,189.448273 182.265793,191.224136 180.000000,193.000000 
	C165.645767,193.000000 151.291550,193.000000 136.468658,193.000000 
z"/>
<path fill="#59E1FD" opacity="1.000000" stroke="none" 
	d="
M180.468658,193.000000 
	C182.265793,191.224136 184.531586,189.448273 187.366867,187.334839 
	C200.623093,187.000763 213.309814,187.004227 225.996536,187.007690 
	C224.629807,187.946976 223.270050,188.896591 221.894318,189.822495 
	C220.652237,190.658417 219.392685,191.468369 218.070419,192.644897 
	C205.645767,193.000000 193.291550,193.000000 180.468658,193.000000 
z"/>
<path fill="#FCFDFD" opacity="1.000000" stroke="none" 
	d="
M42.173546,153.793396 
	C39.546463,153.118423 39.229633,151.616104 39.685078,148.998764 
	C41.937634,136.053925 43.906540,123.059692 46.066223,109.513596 
	C43.182182,108.878830 40.486725,108.285583 37.237129,107.538544 
	C36.496449,107.216827 36.287464,107.084305 36.056038,106.987175 
	C34.563789,105.063728 32.043976,103.282326 31.755098,101.192535 
	C30.421551,91.545547 43.527237,71.799751 53.490528,68.868134 
	C54.481163,68.949852 54.735039,68.976906 54.945786,69.324310 
	C55.267216,70.763687 55.631771,71.882721 56.032837,73.252487 
	C56.049892,73.671028 56.030434,73.838829 55.691555,74.019279 
	C54.823841,74.453506 54.275547,74.875076 53.727257,75.296646 
	C54.475246,75.530144 55.223232,75.763649 56.007591,76.423347 
	C55.968002,78.556107 55.892044,80.262680 55.620960,81.974533 
	C55.425835,81.979813 55.035591,81.990776 54.853149,81.714859 
	C51.575153,78.979027 50.717300,81.557510 50.157703,83.700935 
	C49.722996,85.366020 50.018013,87.221626 49.815765,89.104477 
	C49.581028,89.473557 49.519215,89.730705 49.457405,89.987846 
	C49.641556,89.661964 49.825706,89.336082 50.342178,89.006546 
	C51.117489,89.011139 51.560478,89.019379 52.003838,89.012047 
	C52.004200,88.996475 51.976120,88.982964 52.012054,89.280876 
	C52.366314,90.062233 52.684631,90.545670 53.004471,91.013184 
	C53.005985,90.997261 52.977684,90.982338 52.971157,91.353706 
	C53.310753,92.873619 53.656872,94.022171 54.002327,95.476898 
	C54.286819,96.510979 54.571983,97.238884 54.927689,98.362991 
	C54.727932,100.313721 54.457630,101.868240 54.063950,103.782532 
	C53.445023,106.487762 52.949474,108.833214 52.256783,111.435158 
	C53.009060,113.901726 53.958473,116.111801 54.745201,118.680473 
	C54.113289,128.256409 53.593857,137.471573 53.191887,146.691849 
	C52.907841,153.207306 52.654572,153.550537 46.134769,153.815369 
	C44.816830,153.868896 43.494080,153.803802 42.173546,153.793396 
M48.182278,93.538696 
	C48.065784,93.180229 47.949291,92.821762 47.832798,92.463295 
	C47.550713,93.344322 47.268631,94.225357 46.927895,95.535217 
	C46.927895,95.535217 46.867264,95.963776 46.360859,96.091179 
	C46.244419,96.724129 46.127979,97.357079 46.627457,98.063576 
	C50.774319,98.042023 48.886574,95.807396 48.182278,93.538696 
z"/>
<path fill="#F29C6F" opacity="1.000000" stroke="none" 
	d="
M69.891975,56.517441 
	C68.689240,59.803310 67.405037,62.603493 65.940971,65.855011 
	C65.761108,66.306351 65.849625,66.534233 65.648857,66.866425 
	C65.234955,68.670952 65.021820,70.143288 64.591141,71.703773 
	C64.373611,71.791931 63.945267,71.983994 63.572601,71.972321 
	C59.585384,71.474808 57.833862,69.958694 58.132736,65.775482 
	C58.288620,63.593605 56.286179,61.257526 55.258606,58.991100 
	C54.539543,57.859638 53.820484,56.728180 53.394787,55.083393 
	C55.450058,53.416149 57.342216,52.418083 58.947338,51.076572 
	C62.526894,48.084900 67.211151,49.019161 69.078773,53.247799 
	C69.322685,54.175785 69.566597,55.103771 69.891975,56.517441 
z"/>
<path fill="#5D3E36" opacity="1.000000" stroke="none" 
	d="
M69.389084,53.122253 
	C67.211151,49.019161 62.526894,48.084900 58.947338,51.076572 
	C57.342216,52.418083 55.450058,53.416149 53.387180,54.739868 
	C51.415951,50.887962 53.358952,45.998341 57.714214,43.906292 
	C60.111118,42.754940 62.670033,41.869110 65.238060,41.161915 
	C69.504807,39.986942 71.293182,43.693928 73.507408,46.065849 
	C73.874283,46.458851 71.981087,48.966293 71.126312,50.493240 
	C70.657150,51.331352 70.175453,52.162453 69.389084,53.122253 
z"/>
<path fill="#F19F77" opacity="1.000000" stroke="none" 
	d="
M55.236374,59.398018 
	C56.286179,61.257526 58.288620,63.593605 58.132736,65.775482 
	C57.833862,69.958694 59.585384,71.474808 63.414211,72.268036 
	C60.449436,75.192993 58.395622,73.221313 56.365463,70.509354 
	C56.164570,69.798668 56.046593,69.393570 55.982155,68.750153 
	C56.035686,68.511826 56.032482,68.023308 56.032482,68.023308 
	C55.759705,65.283852 55.486923,62.544392 55.236374,59.398018 
z"/>
<path fill="#F7FCFE" opacity="1.000000" stroke="none" 
	d="
M55.683750,68.018524 
	C56.032482,68.023308 56.035686,68.511826 55.747261,68.753952 
	C55.458836,68.996086 54.988911,69.003967 54.988911,69.003967 
	C54.735039,68.976906 54.481163,68.949852 53.845001,68.878036 
	C54.086815,68.560097 54.710915,68.286919 55.683750,68.018524 
z"/>
<path fill="#F7FCFE" opacity="1.000000" stroke="none" 
	d="
M36.054688,107.228966 
	C36.287464,107.084305 36.496449,107.216827 36.809258,107.521515 
	C36.935528,107.658272 36.558571,107.877899 36.343361,107.913208 
	C36.128147,107.948517 36.053333,107.470757 36.054688,107.228966 
z"/>
<path fill="#603F38" opacity="1.000000" stroke="none" 
	d="
M156.664734,20.247091 
	C164.269073,19.572432 171.384308,20.058918 178.641327,23.763657 
	C185.799347,27.746738 190.268570,33.359455 193.970322,40.067280 
	C197.820602,50.068607 197.493515,59.605774 192.920227,69.295319 
	C190.039398,72.980934 187.362045,76.388725 184.383148,79.942001 
	C180.269684,82.247589 176.457779,84.407692 172.230576,86.579849 
	C155.609314,90.123215 143.006287,84.656754 133.406174,70.937325 
	C132.282394,71.528130 131.167038,72.114502 129.695724,72.797005 
	C122.922554,76.622543 116.505356,80.351944 109.682144,83.974487 
	C105.859245,83.249275 103.289742,84.029640 102.273056,88.106094 
	C100.166519,89.342918 98.422920,90.454735 96.600327,91.416946 
	C89.333107,95.253578 82.041290,99.043625 74.419067,102.909561 
	C71.367081,104.329071 68.654602,105.689926 65.758347,106.791092 
	C64.355522,105.720474 63.136475,104.909546 62.150841,103.893356 
	C63.616276,102.943428 64.848305,102.198753 66.433228,101.347260 
	C76.128166,96.377625 85.487030,91.546547 94.791763,86.613358 
	C96.005684,85.969757 96.941223,84.801079 98.005714,83.875618 
	C102.878830,81.770615 107.779831,79.727417 112.618195,77.545357 
	C119.047211,74.645920 125.427391,71.638199 131.655670,68.756981 
	C125.452942,42.715572 134.109421,26.185013 156.664734,20.247091 
M136.329300,40.072224 
	C136.190460,40.488068 136.051620,40.903912 135.419235,41.811172 
	C134.882980,44.343124 134.346725,46.875072 133.263474,50.099072 
	C133.473724,53.445210 133.683975,56.791351 133.896729,60.890034 
	C138.650940,77.949135 155.318817,87.444191 171.913040,82.088280 
	C174.953430,80.347443 177.993820,78.606606 181.650803,76.646584 
	C184.319702,73.115395 186.988617,69.584206 190.068893,65.360191 
	C193.433060,56.794682 193.590393,48.366131 188.856659,39.441334 
	C184.562561,31.977394 178.559875,26.772190 169.085007,24.882881 
	C155.123306,22.008501 141.362671,28.452171 136.968781,39.991783 
	C136.968781,39.991783 136.969788,39.922161 136.329300,40.072224 
z"/>
<path fill="#F8FAFB" opacity="1.000000" stroke="none" 
	d="
M97.554031,83.862396 
	C96.941223,84.801079 96.005684,85.969757 94.791763,86.613358 
	C85.487030,91.546547 76.128166,96.377625 66.393822,100.917038 
	C66.014877,99.730080 66.028236,98.866501 66.277840,97.733704 
	C67.011055,95.310631 67.508018,93.156784 68.245155,90.778015 
	C68.658684,89.703194 68.832047,88.853279 69.231842,87.819534 
	C69.638512,87.090118 69.818748,86.544540 70.235985,85.717697 
	C70.600967,84.472450 71.199409,83.015442 70.784943,82.619949 
	C66.094795,78.144547 67.541115,71.863983 65.849625,66.534233 
	C65.849625,66.534233 65.761108,66.306351 65.808060,66.193771 
	C74.781105,66.529488 78.204575,73.208809 81.080772,80.059647 
	C82.983658,84.592171 85.534805,86.032272 90.220253,84.532990 
	C92.367371,83.845940 94.799484,84.049500 97.554031,83.862396 
z"/>
<path fill="#F8CF82" opacity="1.000000" stroke="none" 
	d="
M42.116451,154.222565 
	C43.494080,153.803802 44.816830,153.868896 46.134769,153.815369 
	C52.654572,153.550537 52.907841,153.207306 53.191887,146.691849 
	C53.593857,137.471573 54.113289,128.256409 55.212975,118.653419 
	C59.231953,118.212791 62.620464,118.157806 66.078392,118.514236 
	C66.445778,127.984245 66.792625,137.041565 67.026154,146.101807 
	C67.210472,153.252762 67.148552,153.254364 74.330917,154.395676 
	C74.522331,158.534805 74.702202,162.266724 74.811852,166.437759 
	C73.525818,169.578232 77.465012,173.881790 71.672470,175.230286 
	C68.534325,175.145752 65.847092,175.131729 63.038116,174.672729 
	C62.273579,160.138290 61.630783,146.048843 60.987988,131.959396 
	C59.639915,133.484558 59.264603,135.047333 58.967533,136.624863 
	C56.814850,148.056381 54.782829,159.512665 52.418232,170.899979 
	C52.079990,172.528839 50.157673,173.828751 48.533901,175.217041 
	C46.055748,175.202087 44.012169,175.250992 41.968594,175.299896 
	C39.561195,175.248947 39.004246,174.107681 39.420868,171.778534 
	C40.437656,166.094162 41.196606,160.363678 42.116451,154.222565 
z"/>
<path fill="#5E4684" opacity="1.000000" stroke="none" 
	d="
M104.966354,185.939606 
	C104.533966,185.887711 104.101578,185.835800 102.893311,185.789062 
	C98.740784,185.839584 95.364136,185.884918 91.987480,185.930252 
	C73.965965,185.878387 55.944454,185.826523 37.457253,185.840424 
	C29.042028,185.906189 21.092493,185.906189 13.142960,185.906189 
	C13.135112,184.999786 13.127264,184.093384 13.119416,183.186981 
	C21.431606,183.108322 29.743797,183.029678 38.980701,182.942810 
	C43.932892,182.897491 47.960365,182.860397 52.437691,182.887665 
	C55.896847,182.907394 58.906155,182.862747 62.387886,182.874954 
	C68.961098,182.890900 75.061890,182.849976 81.617226,182.870972 
	C88.714424,182.897797 95.357071,182.862686 102.465057,182.888031 
	C121.427528,182.948074 139.924683,182.947662 158.863800,182.961182 
	C181.723465,182.907898 204.141159,182.840683 226.558853,182.773468 
	C229.089386,182.837753 231.619904,182.902054 234.576767,182.900635 
	C240.321945,182.891464 245.646942,182.827332 250.954834,183.098404 
	C252.127808,183.158295 253.240219,184.404388 253.799179,185.413940 
	C230.811905,185.806229 208.405960,185.888870 185.538696,185.879822 
	C165.051468,185.848572 145.025589,185.909012 124.538116,185.880951 
	C117.706474,185.841476 111.336411,185.890549 104.966354,185.939606 
z"/>
<path fill="#B58BFB" opacity="1.000000" stroke="none" 
	d="
M51.987839,182.823303 
	C47.960365,182.860397 43.932892,182.897491 39.444321,182.878525 
	C39.971687,180.546036 40.960152,178.269608 41.958603,175.646530 
	C44.012169,175.250992 46.055748,175.202087 48.546585,175.566040 
	C49.991844,178.260376 50.989841,180.541840 51.987839,182.823303 
z"/>
<path fill="#8556DF" opacity="1.000000" stroke="none" 
	d="
M130.051697,72.700867 
	C131.167038,72.114502 132.282394,71.528130 133.406174,70.937325 
	C143.006287,84.656754 155.609314,90.123215 172.553101,86.844833 
	C175.366714,87.959740 177.442505,88.821724 179.444214,89.652954 
	C180.632629,95.644104 182.729019,97.509567 188.649323,97.893944 
	C190.605621,98.020958 192.567169,98.067345 194.676331,98.470734 
	C197.545441,100.888123 200.386200,102.848045 202.950485,105.119995 
	C205.693756,107.550507 208.739883,109.933678 210.587952,112.983406 
	C211.973877,115.270500 212.935974,116.447365 215.466400,115.528343 
	C218.052902,114.588959 219.197922,113.059967 217.893280,110.151260 
	C216.331894,106.670143 215.096939,103.042618 214.119080,99.547089 
	C225.224731,99.346230 232.196381,87.914963 227.835052,78.155396 
	C226.934937,76.141182 227.369629,73.559753 227.010239,71.267792 
	C226.469284,67.818001 226.705292,63.738720 224.883575,61.136238 
	C222.954727,58.380707 220.529770,56.423687 220.878937,52.568886 
	C220.980621,51.446148 219.536301,49.306400 218.508972,49.102528 
	C212.430283,47.896229 208.453140,43.047585 203.140457,40.732521 
	C200.437759,39.554790 197.022247,40.012856 193.928970,39.731468 
	C190.268570,33.359455 185.799347,27.746738 178.998535,23.905281 
	C188.432831,21.870665 197.831192,23.272635 207.480225,26.288628 
	C215.229462,31.058374 222.596054,35.729015 230.089035,40.479786 
	C230.299866,39.960423 230.885025,38.518875 231.470200,37.077328 
	C231.407425,43.313313 236.350998,44.362076 240.933411,46.224724 
	C242.727203,49.118370 244.224930,51.864822 245.722641,54.611275 
	C245.366348,54.791950 245.010056,54.972626 244.653748,55.153301 
	C242.058548,53.660355 239.463333,52.167408 236.868118,50.674461 
	C236.356461,50.951477 235.844803,51.228493 235.333145,51.505505 
	C245.515762,69.232651 245.939774,87.404907 238.880524,106.274498 
	C236.171234,114.407333 233.500092,122.182419 230.628616,130.467926 
	C230.428268,130.978363 230.062103,131.237701 229.654602,131.211105 
	C228.516602,129.885284 227.520309,128.664276 227.110153,127.270760 
	C226.219345,124.244308 225.627899,121.129745 224.914062,118.051208 
	C224.437668,118.068451 223.961273,118.085686 223.484894,118.102928 
	C222.981415,121.738121 222.477936,125.373314 221.683014,129.190613 
	C219.251816,133.527481 215.078186,130.530380 211.879898,131.683624 
	C209.632019,131.240662 207.644852,130.820053 205.729691,131.036545 
	C201.840454,131.476151 199.769028,130.133850 200.091141,125.823898 
	C199.906509,124.375214 199.478088,123.163330 199.051941,121.569305 
	C199.182053,118.490852 201.893066,114.977837 196.955261,113.614799 
	C197.146484,111.056534 197.146484,108.826988 197.146484,106.597450 
	C196.538712,106.568146 195.930939,106.538841 195.323166,106.509544 
	C194.547897,112.673317 193.772629,118.837097 192.700348,125.192207 
	C191.838318,127.464569 191.273285,129.545609 190.611633,131.982452 
	C187.700668,131.982452 184.577835,132.126541 181.480927,131.906128 
	C180.362350,131.826508 178.544815,131.067062 178.345505,130.286209 
	C177.105927,125.429832 176.235382,120.479248 175.226730,115.482033 
	C173.477600,115.571533 171.920975,115.651184 171.194687,115.688347 
	C170.012680,121.277626 168.942841,126.336479 167.721405,132.112167 
	C165.231369,132.112167 162.439804,132.112167 159.368835,131.873322 
	C153.667770,131.967468 152.258530,127.584496 150.523209,123.392944 
	C149.463547,124.697792 148.894455,125.398560 148.110138,126.364365 
	C147.631241,124.222336 147.276062,122.633629 147.161072,120.785667 
	C147.156906,119.217201 146.912552,117.907990 146.668182,116.598785 
	C145.399094,117.072647 143.536911,117.174278 142.964920,118.085648 
	C140.647934,121.777443 139.312546,125.758163 142.022614,129.966949 
	C141.996582,129.999359 141.944168,130.063843 141.597748,130.142105 
	C138.335129,132.035233 135.426422,133.902420 134.808731,128.214569 
	C134.722305,127.418724 134.254089,126.664360 133.978516,125.439735 
	C133.510635,117.469490 133.026855,109.950302 132.543076,102.431114 
	C132.008331,102.453842 131.473587,102.476570 130.938843,102.499298 
	C130.311188,110.657448 129.683517,118.815598 128.808807,127.185471 
	C127.109802,128.909866 125.657837,130.422531 124.163086,131.589203 
	C124.389183,127.324600 124.694138,123.408066 124.918091,119.486908 
	C125.217911,114.237335 126.002678,109.093666 118.530647,107.474808 
	C114.933922,106.695557 114.277832,103.085655 116.504524,99.822510 
	C117.611664,98.200012 118.818123,96.448074 120.401680,95.380966 
	C128.582169,89.868431 131.657883,82.312790 130.051697,72.700867 
z"/>
<path fill="#8556DF" opacity="1.000000" stroke="none" 
	d="
M226.465881,182.358902 
	C204.141159,182.840683 181.723465,182.907898 158.817276,182.524475 
	C157.101715,173.887497 155.527084,165.733337 154.765228,157.503906 
	C154.223724,151.654663 151.666504,149.509338 145.913513,148.838943 
	C138.437805,147.967758 130.660355,147.035507 124.940109,140.744293 
	C124.860077,140.295395 124.804199,140.120651 124.778404,139.523010 
	C124.861336,137.402786 124.914169,135.705460 125.354080,134.002838 
	C127.762688,133.182129 129.784225,132.366714 131.874390,131.523621 
	C136.257935,135.641983 140.565964,135.073792 141.944168,130.063843 
	C141.944168,130.063843 141.996582,129.999359 142.379028,129.887970 
	C143.777771,129.001816 144.794083,128.227036 146.082977,127.691589 
	C146.747116,129.131454 147.138672,130.331985 147.401474,131.137711 
	C150.773727,131.712692 153.839005,132.235321 157.052322,133.001648 
	C157.477417,133.500244 157.754501,133.755173 158.109131,134.240448 
	C158.274033,134.782806 158.315948,135.100800 158.247101,135.851059 
	C158.862473,139.678726 159.543152,143.080124 160.223831,146.481506 
	C160.685120,146.579666 161.146393,146.677826 161.607666,146.775970 
	C163.003708,142.725769 163.507080,136.001419 165.979599,135.176071 
	C171.302368,133.399261 170.610794,127.214531 173.836853,125.700516 
	C175.033081,128.583542 175.858871,130.913544 176.949432,133.112213 
	C178.184250,135.601654 179.629181,137.989426 181.039566,140.388000 
	C181.575089,141.298752 182.268692,142.116562 182.917694,143.388794 
	C183.462723,146.400497 183.980331,149.000168 184.497925,151.599823 
	C185.008194,151.568832 185.518463,151.537842 186.028732,151.506836 
	C186.250473,147.388916 186.472229,143.270981 187.019989,138.961807 
	C188.598083,134.006256 196.085052,133.256149 195.075089,126.916512 
	C195.056900,126.802307 197.097504,126.360115 198.220047,126.445251 
	C198.488297,131.512238 200.912888,133.323563 205.531891,132.589828 
	C206.947937,132.364899 208.450485,132.684509 210.040726,132.988144 
	C210.412582,133.472992 210.657150,133.724442 210.987274,134.315918 
	C211.379608,135.781403 211.686356,136.906830 211.847168,138.354706 
	C212.155945,141.969879 212.610672,145.262634 213.245789,149.861633 
	C216.024368,145.387222 219.330139,142.461823 214.335312,138.719467 
	C218.368484,135.655701 222.089890,132.828751 225.926910,130.323975 
	C227.345337,131.338257 228.648102,132.030365 229.984161,133.044464 
	C230.051682,133.579529 230.085922,133.792603 230.120163,134.005692 
	C229.936157,134.981903 229.572739,135.962753 229.597733,136.933578 
	C229.740875,142.492920 228.396088,146.630920 220.538589,145.187897 
	C222.567673,157.971176 224.470291,169.957764 226.465881,182.358902 
z"/>
<path fill="#5ADDFC" opacity="1.000000" stroke="none" 
	d="
M230.572083,134.003922 
	C230.085922,133.792603 230.051682,133.579529 230.039001,132.801514 
	C230.061066,131.903610 230.061584,131.570648 230.062103,131.237701 
	C230.062103,131.237701 230.428268,130.978363 230.619141,130.861084 
	C235.551559,131.151871 240.293076,131.559921 245.520935,131.980911 
	C246.007263,131.993851 246.061890,132.040100 246.061890,132.040100 
	C241.049271,132.694122 236.036636,133.348145 230.572083,134.003922 
z"/>
<path fill="#5ADDFC" opacity="1.000000" stroke="none" 
	d="
M245.983795,131.966843 
	C245.960312,131.939835 246.216660,131.649765 246.216660,131.649765 
	C246.216660,131.649765 246.228653,131.923416 246.145264,131.981750 
	C246.061890,132.040100 246.007263,131.993851 245.983795,131.966843 
z"/>
<path fill="#59F3FF" opacity="1.000000" stroke="none" 
	d="
M186.000031,185.971512 
	C208.405960,185.888870 230.811905,185.806229 253.710602,185.726105 
	C252.512009,186.153107 250.826797,186.913025 249.128296,186.944046 
	C241.732513,187.079102 234.332855,187.002090 226.465576,187.004898 
	C213.309814,187.004227 200.623093,187.000763 187.467575,187.000183 
	C186.998779,187.003052 186.501541,186.997421 186.251617,186.740112 
	C186.001129,186.312378 186.000580,186.141953 186.000031,185.971512 
z"/>
<path fill="#5AE0FF" opacity="1.000000" stroke="none" 
	d="
M91.988922,186.199219 
	C95.364136,185.884918 98.740784,185.839584 102.573761,185.867203 
	C99.654068,186.293747 96.278053,186.647339 92.449028,187.003510 
	C91.994141,186.826782 91.992249,186.647476 91.988922,186.199219 
z"/>
<path fill="#59E9FF" opacity="1.000000" stroke="none" 
	d="
M185.538696,185.879822 
	C186.000580,186.141953 186.001129,186.312378 186.002975,186.738342 
	C171.981186,186.995911 157.958084,186.997925 143.466019,187.002655 
	C137.311447,187.001831 131.625870,186.998306 125.471031,186.738098 
	C125.001083,186.310776 125.000389,186.140121 124.999702,185.969467 
	C145.025589,185.909012 165.051468,185.848572 185.538696,185.879822 
z"/>
<path fill="#5AE0FF" opacity="1.000000" stroke="none" 
	d="
M124.538116,185.880951 
	C125.000389,186.140121 125.001083,186.310776 125.003410,186.737335 
	C118.543503,186.816833 112.081978,186.640442 105.293396,186.201813 
	C111.336411,185.890549 117.706474,185.841476 124.538116,185.880951 
z"/>
<path fill="#B88CFC" opacity="1.000000" stroke="none" 
	d="
M66.041588,98.002930 
	C66.028236,98.866501 66.014877,99.730080 66.040924,101.023865 
	C64.848305,102.198753 63.616276,102.943428 61.847145,103.714012 
	C58.935802,103.634201 56.561565,103.528473 54.187325,103.422752 
	C54.457630,101.868240 54.727932,100.313721 55.091057,97.983719 
	C55.394615,92.128563 55.605350,87.048904 55.816086,81.969246 
	C55.892044,80.262680 55.968002,78.556107 56.058777,76.093567 
	C56.052719,74.893936 56.031849,74.450279 56.010979,74.006622 
	C56.030434,73.838829 56.049892,73.671028 56.098259,72.886078 
	C56.234238,71.784264 56.341312,71.299599 56.448387,70.814941 
	C58.395622,73.221313 60.449436,75.192993 63.786877,72.279709 
	C63.945267,71.983994 64.373611,71.791931 64.648613,72.181976 
	C65.178490,76.056236 65.433365,79.540443 65.711334,83.481689 
	C65.810883,87.314232 65.887329,90.689728 65.932556,94.458603 
	C65.948090,95.902306 65.994843,96.952614 66.041588,98.002930 
z"/>
<path fill="#F39C73" opacity="1.000000" stroke="none" 
	d="
M54.063950,103.782532 
	C56.561565,103.528473 58.935802,103.634201 61.613739,103.919266 
	C63.136475,104.909546 64.355522,105.720474 65.772293,106.943619 
	C65.970016,107.355835 65.877060,107.647934 65.577522,107.846405 
	C61.873539,112.650650 57.369267,112.755760 52.453918,111.178673 
	C52.949474,108.833214 53.445023,106.487762 54.063950,103.782532 
z"/>
<path fill="#B78CF4" opacity="1.000000" stroke="none" 
	d="
M52.256783,111.435158 
	C57.369267,112.755760 61.873539,112.650650 65.642151,108.330086 
	C66.007210,111.777809 66.008095,114.940308 66.008980,118.102814 
	C62.620464,118.157806 59.231953,118.212791 55.375664,118.294830 
	C53.958473,116.111801 53.009060,113.901726 52.256783,111.435158 
z"/>
<path fill="#F3EEFA" opacity="1.000000" stroke="none" 
	d="
M55.620960,81.974533 
	C55.605350,87.048904 55.394615,92.128563 55.020515,97.587502 
	C54.571983,97.238884 54.286819,96.510979 54.000469,95.095230 
	C53.658749,93.265701 53.318218,92.124023 52.977684,90.982338 
	C52.977684,90.982338 53.005985,90.997261 52.965363,90.716789 
	C52.608532,89.951866 52.292328,89.467415 51.976120,88.982964 
	C51.976120,88.982964 52.004200,88.996475 52.002144,88.628258 
	C51.846836,86.735329 51.693588,85.210609 51.547142,83.753563 
	C52.836891,83.101822 53.936241,82.546303 55.035591,81.990776 
	C55.035591,81.990776 55.425835,81.979813 55.620960,81.974533 
z"/>
<path fill="#DEDFE0" opacity="1.000000" stroke="none" 
	d="
M54.853149,81.714859 
	C53.936241,82.546303 52.836891,83.101822 51.547142,83.753563 
	C51.693588,85.210609 51.846836,86.735329 52.001778,88.643829 
	C51.560478,89.019379 51.117489,89.011139 50.337315,89.001541 
	C50.000134,89.000183 49.988686,88.992546 49.988686,88.992546 
	C50.018013,87.221626 49.722996,85.366020 50.157703,83.700935 
	C50.717300,81.557510 51.575153,78.979027 54.853149,81.714859 
z"/>
<path fill="#F8FCFE" opacity="1.000000" stroke="none" 
	d="
M46.867264,95.963776 
	C46.867264,95.963776 46.927895,95.535217 47.173176,95.161545 
	C47.653358,94.520271 47.888260,94.252686 48.123161,93.985092 
	C48.886574,95.807396 50.774319,98.042023 46.434212,97.776154 
	C46.449730,96.980415 46.658497,96.472092 46.867264,95.963776 
z"/>
<path fill="#F4F5F7" opacity="1.000000" stroke="none" 
	d="
M56.365463,70.509354 
	C56.341312,71.299599 56.234238,71.784264 56.061745,72.635338 
	C55.631771,71.882721 55.267216,70.763687 54.945786,69.324310 
	C54.988911,69.003967 55.458836,68.996086 55.693726,68.992279 
	C56.046593,69.393570 56.164570,69.798668 56.365463,70.509354 
z"/>
<path fill="#F4F5F7" opacity="1.000000" stroke="none" 
	d="
M55.691555,74.019279 
	C56.031849,74.450279 56.052719,74.893936 56.022404,75.667374 
	C55.223232,75.763649 54.475246,75.530144 53.727257,75.296646 
	C54.275547,74.875076 54.823841,74.453506 55.691555,74.019279 
z"/>
<path fill="#DEDFE0" opacity="1.000000" stroke="none" 
	d="
M48.152718,93.761894 
	C47.888260,94.252686 47.653358,94.520271 47.202503,94.947128 
	C47.268631,94.225357 47.550713,93.344322 47.832802,92.463295 
	C47.949291,92.821762 48.065784,93.180229 48.152718,93.761894 
z"/>
<path fill="#DEDFE0" opacity="1.000000" stroke="none" 
	d="
M52.971161,91.353706 
	C53.318218,92.124023 53.658749,93.265701 54.001137,94.789047 
	C53.656872,94.022171 53.310753,92.873619 52.971161,91.353706 
z"/>
<path fill="#F8F9FA" opacity="1.000000" stroke="none" 
	d="
M46.614059,96.027481 
	C46.658497,96.472092 46.449730,96.980415 46.126255,97.739380 
	C46.127979,97.357079 46.244419,96.724129 46.614059,96.027481 
z"/>
<path fill="#DEDFE0" opacity="1.000000" stroke="none" 
	d="
M52.012054,89.280876 
	C52.292328,89.467415 52.608532,89.951866 52.963844,90.732712 
	C52.684631,90.545670 52.366314,90.062233 52.012054,89.280876 
z"/>
<path fill="#DEDFE0" opacity="1.000000" stroke="none" 
	d="
M50.004997,89.005188 
	C49.825706,89.336082 49.641556,89.661964 49.457405,89.987846 
	C49.519215,89.730705 49.581028,89.473557 49.815765,89.104477 
	C49.988686,88.992546 50.000134,89.000183 50.004997,89.005188 
z"/>
<path fill="#DFD7EA" opacity="1.000000" stroke="none" 
	d="
M65.688240,83.024651 
	C65.433365,79.540443 65.178490,76.056236 64.866150,72.093826 
	C65.021820,70.143288 65.234955,68.670952 65.648857,66.866425 
	C67.541115,71.863983 66.094795,78.144547 70.784943,82.619949 
	C71.199409,83.015442 70.600967,84.472450 70.236343,85.718063 
	C69.999695,85.999695 69.994644,85.996658 69.982132,85.650024 
	C70.250153,81.335373 67.383842,83.279808 65.688240,83.024651 
z"/>
<path fill="#5DCBF9" opacity="1.000000" stroke="none" 
	d="
M124.967010,134.008118 
	C124.914169,135.705460 124.861336,137.402786 124.547989,139.426727 
	C123.483704,140.117432 122.679939,140.481522 121.876175,140.845627 
	C122.249420,141.230820 122.622673,141.616028 122.928589,142.304657 
	C122.242210,143.075333 121.623161,143.542587 120.655167,143.911255 
	C119.543083,142.433609 118.642303,141.111740 118.041107,139.665359 
	C115.685883,133.999084 113.425232,128.293503 111.077484,122.473732 
	C110.009727,124.384918 108.998871,126.194252 107.608154,128.053864 
	C105.389732,129.066742 103.609909,130.690704 101.700920,130.860214 
	C97.116234,131.267334 92.470947,130.991943 87.850113,130.991943 
	C87.847099,131.484924 87.844086,131.977890 87.841080,132.470871 
	C93.897186,132.470871 99.953300,132.470871 105.836975,132.776154 
	C102.225189,134.266983 98.623405,134.566345 96.257828,138.348434 
	C90.904953,146.906570 85.039810,155.150711 79.185272,163.381912 
	C78.291428,164.638641 76.342834,165.145157 74.882080,165.998657 
	C74.702202,162.266724 74.522331,158.534805 74.692688,154.309723 
	C80.676514,153.299973 79.050674,149.088211 78.782501,145.950012 
	C77.554054,131.574005 76.119263,117.215630 74.758575,102.850922 
	C82.041290,99.043625 89.333107,95.253578 96.600327,91.416946 
	C98.422920,90.454735 100.166519,89.342918 102.600731,88.434753 
	C107.097282,89.455452 110.041008,88.973312 110.088158,84.081345 
	C116.505356,80.351944 122.922554,76.622543 129.695724,72.797012 
	C131.657883,82.312790 128.582169,89.868431 120.401680,95.380966 
	C118.818123,96.448074 117.611664,98.200012 116.504524,99.822510 
	C114.277832,103.085655 114.933922,106.695557 118.530647,107.474808 
	C126.002678,109.093666 125.217911,114.237335 124.918091,119.486908 
	C124.694138,123.408066 124.389183,127.324600 124.137207,131.884003 
	C124.425079,133.019241 124.696045,133.513687 124.967010,134.008118 
M121.493317,137.733932 
	C121.770454,137.454865 122.047600,137.175812 122.324745,136.896759 
	C121.981956,136.700989 121.639168,136.505219 121.296379,136.309448 
	C121.198853,136.744720 121.101326,137.179977 121.493317,137.733932 
z"/>
<path fill="#E35556" opacity="1.000000" stroke="none" 
	d="
M194.526306,98.150597 
	C192.567169,98.067345 190.605621,98.020958 188.649323,97.893944 
	C182.729019,97.509567 180.632629,95.644104 179.444214,89.652954 
	C177.442505,88.821724 175.366714,87.959740 172.968384,86.832771 
	C176.457779,84.407692 180.269684,82.247589 184.609619,80.241852 
	C187.714920,81.600266 190.292206,82.804321 192.760880,83.957634 
	C198.571976,74.696014 198.570602,73.467415 193.123718,69.017487 
	C197.493515,59.605774 197.820602,50.068607 193.970322,40.067280 
	C197.022247,40.012856 200.437759,39.554790 203.140457,40.732521 
	C208.453140,43.047585 212.430283,47.896229 218.508972,49.102528 
	C219.536301,49.306400 220.980621,51.446148 220.878937,52.568886 
	C220.529770,56.423687 222.954727,58.380707 224.883575,61.136238 
	C226.705292,63.738720 226.469284,67.818001 227.010239,71.267792 
	C227.369629,73.559753 226.934937,76.141182 227.835052,78.155396 
	C232.196381,87.914963 225.224731,99.346230 213.894623,99.292282 
	C207.023239,98.696136 200.774765,98.423363 194.526306,98.150597 
z"/>
<path fill="#EC9091" opacity="1.000000" stroke="none" 
	d="
M181.034210,76.865753 
	C177.993820,78.606606 174.953430,80.347443 171.523483,81.702911 
	C170.747787,80.647606 170.464844,79.492111 169.959167,79.384659 
	C165.977448,78.538574 161.840240,78.254761 157.983627,77.051735 
	C155.608322,76.310783 152.926300,74.716385 151.642700,72.701881 
	C149.118073,68.739708 147.776352,64.806702 150.382782,59.451191 
	C152.347641,55.413929 153.400436,51.350315 157.546707,48.917458 
	C158.408829,48.411606 159.026352,47.245770 159.435760,46.251923 
	C161.692688,40.773174 165.530853,37.843910 171.129349,38.206779 
	C177.100189,38.593784 183.039001,39.475151 188.991791,40.140701 
	C193.590393,48.366131 193.433060,56.794682 189.535843,65.771248 
	C183.718460,67.783180 180.986038,71.287468 181.034210,76.865753 
z"/>
<path fill="#AE8FE8" opacity="1.000000" stroke="none" 
	d="
M188.924225,39.791016 
	C183.039001,39.475151 177.100189,38.593784 171.129349,38.206779 
	C165.530853,37.843910 161.692688,40.773174 159.435760,46.251923 
	C159.026352,47.245770 158.408829,48.411606 157.546707,48.917458 
	C153.400436,51.350315 152.347641,55.413929 150.382782,59.451191 
	C147.776352,64.806702 149.118073,68.739708 151.642700,72.701881 
	C152.926300,74.716385 155.608322,76.310783 157.983627,77.051735 
	C161.840240,78.254761 165.977448,78.538574 169.959167,79.384659 
	C170.464844,79.492111 170.747787,80.647606 171.163605,81.727005 
	C155.318817,87.444191 138.650940,77.949135 134.153183,60.279297 
	C138.107376,56.020473 135.488907,52.741192 133.810455,49.407024 
	C134.346725,46.875072 134.882980,44.343124 135.893448,41.365074 
	C136.568375,40.586700 136.769089,40.254433 136.969788,39.922165 
	C136.969788,39.922161 136.968781,39.991783 137.305969,39.980827 
	C148.391876,35.011208 159.140610,30.052542 169.889343,25.093878 
	C178.559875,26.772190 184.562561,31.977394 188.924225,39.791016 
z"/>
<path fill="#FBFCFD" opacity="1.000000" stroke="none" 
	d="
M74.419067,102.909561 
	C76.119263,117.215630 77.554054,131.574005 78.782501,145.950012 
	C79.050674,149.088211 80.676514,153.299973 74.681145,153.902496 
	C67.148552,153.254364 67.210472,153.252762 67.026154,146.101807 
	C66.792625,137.041565 66.445778,127.984245 66.078392,118.514236 
	C66.008095,114.940308 66.007210,111.777809 65.941696,108.131622 
	C65.877060,107.647934 65.970016,107.355835 65.956070,107.203308 
	C68.654602,105.689926 71.367081,104.329071 74.419067,102.909561 
z"/>
<path fill="#93D6F5" opacity="1.000000" stroke="none" 
	d="
M169.487183,24.988379 
	C159.140610,30.052542 148.391876,35.011208 137.279388,39.958321 
	C141.362671,28.452171 155.123306,22.008501 169.487183,24.988379 
z"/>
<path fill="#E99485" opacity="1.000000" stroke="none" 
	d="
M192.920227,69.295319 
	C198.570602,73.467415 198.571976,74.696014 192.760880,83.957634 
	C190.292206,82.804321 187.714920,81.600266 184.911163,80.096367 
	C187.362045,76.388725 190.039398,72.980934 192.920227,69.295319 
z"/>
<path fill="#ECA39E" opacity="1.000000" stroke="none" 
	d="
M181.342499,76.756165 
	C180.986038,71.287468 183.718460,67.783180 189.330170,66.117661 
	C186.988617,69.584206 184.319702,73.115395 181.342499,76.756165 
z"/>
<path fill="#F19C6E" opacity="1.000000" stroke="none" 
	d="
M109.682144,83.974487 
	C110.041008,88.973312 107.097282,89.455452 102.927361,88.240990 
	C103.289742,84.029640 105.859245,83.249275 109.682144,83.974487 
z"/>
<path fill="#93CFF1" opacity="1.000000" stroke="none" 
	d="
M133.536957,49.753048 
	C135.488907,52.741192 138.107376,56.020473 134.151917,59.903027 
	C133.683975,56.791351 133.473724,53.445210 133.536957,49.753048 
z"/>
<path fill="#93D6F5" opacity="1.000000" stroke="none" 
	d="
M136.649536,39.997192 
	C136.769089,40.254433 136.568375,40.586700 136.140228,41.119362 
	C136.051620,40.903912 136.190460,40.488068 136.649536,39.997192 
z"/>
<path fill="#DFD7EA" opacity="1.000000" stroke="none" 
	d="
M66.277840,97.733704 
	C65.994843,96.952614 65.948090,95.902306 66.163101,94.245895 
	C66.945778,92.757378 67.466705,91.874947 67.992226,90.995285 
	C67.996811,90.998047 68.004990,91.002930 68.004990,91.002930 
	C67.508018,93.156784 67.011055,95.310631 66.277840,97.733704 
z"/>
<path fill="#DFD7EA" opacity="1.000000" stroke="none" 
	d="
M69.005402,88.003365 
	C68.832047,88.853279 68.658684,89.703194 68.245155,90.778015 
	C68.004990,91.002930 67.996811,90.998047 67.999474,90.665054 
	C68.330856,89.552261 68.659576,88.772469 68.992767,87.995453 
	C68.997231,87.998238 69.005402,88.003365 69.005402,88.003365 
z"/>
<path fill="#DFD7EA" opacity="1.000000" stroke="none" 
	d="
M69.999344,85.999329 
	C69.818748,86.544540 69.638512,87.090118 69.231842,87.819534 
	C69.005402,88.003365 68.997231,87.998238 69.026932,87.704063 
	C69.369308,86.938812 69.681976,86.467735 69.994644,85.996658 
	C69.994644,85.996658 69.999695,85.999695 69.999344,85.999329 
z"/>
<path fill="#5BD0FB" opacity="1.000000" stroke="none" 
	d="
M107.988022,128.003586 
	C108.998871,126.194252 110.009727,124.384918 111.077484,122.473732 
	C113.425232,128.293503 115.685883,133.999084 118.041107,139.665359 
	C118.642303,141.111740 119.543083,142.433609 120.775124,144.198547 
	C120.857300,145.727875 120.704102,147.031342 120.047371,147.989792 
	C114.072487,156.709656 108.183617,165.498383 101.886063,173.982285 
	C99.414696,177.311646 99.061356,179.909592 101.999725,182.827576 
	C95.357071,182.862686 88.714424,182.897797 81.569443,182.507889 
	C79.100929,180.731491 77.099388,179.427902 75.182274,178.010147 
	C74.091370,177.203400 73.138451,176.210098 72.123390,175.300797 
	C77.465012,173.881790 73.525818,169.578232 74.811852,166.437775 
	C76.342834,165.145157 78.291428,164.638641 79.185272,163.381912 
	C85.039810,155.150711 90.904953,146.906570 96.257828,138.348434 
	C98.623405,134.566345 102.225189,134.266983 106.118950,132.548843 
	C107.044907,130.678696 107.516464,129.341141 107.988022,128.003586 
z"/>
<path fill="#60CAF6" opacity="1.000000" stroke="none" 
	d="
M52.437691,182.887680 
	C50.989841,180.541840 49.991844,178.260376 48.981163,175.629898 
	C50.157673,173.828751 52.079990,172.528839 52.418232,170.899979 
	C54.782829,159.512665 56.814850,148.056381 58.967533,136.624863 
	C59.264603,135.047333 59.639915,133.484558 60.987988,131.959396 
	C61.630783,146.048843 62.273579,160.138290 62.982841,175.054810 
	C62.671356,178.193954 62.293411,180.506027 61.915466,182.818085 
	C58.906155,182.862747 55.896847,182.907394 52.437691,182.887680 
z"/>
<path fill="#B48BFC" opacity="1.000000" stroke="none" 
	d="
M62.387886,182.874954 
	C62.293411,180.506027 62.671356,178.193954 63.104584,175.499817 
	C65.847092,175.131729 68.534325,175.145752 71.672470,175.230286 
	C73.138451,176.210098 74.091370,177.203400 75.182274,178.010147 
	C77.099388,179.427902 79.100929,180.731491 81.114899,182.445984 
	C75.061890,182.849976 68.961098,182.890900 62.387886,182.874954 
z"/>
<path fill="#5AD5FC" opacity="1.000000" stroke="none" 
	d="
M102.465057,182.888031 
	C99.061356,179.909592 99.414696,177.311646 101.886063,173.982285 
	C108.183617,165.498383 114.072487,156.709656 120.047371,147.989792 
	C120.704102,147.031342 120.857300,145.727875 121.124069,144.297134 
	C121.623161,143.542587 122.242210,143.075333 123.178146,142.188492 
	C123.984756,141.518753 124.474503,141.268600 124.964249,141.018448 
	C130.660355,147.035507 138.437805,147.967758 145.913513,148.838943 
	C151.666504,149.509338 154.223724,151.654663 154.765228,157.503906 
	C155.527084,165.733337 157.101715,173.887497 158.375305,182.510544 
	C139.924683,182.947662 121.427528,182.948074 102.465057,182.888031 
z"/>
<path fill="#8656DF" opacity="1.000000" stroke="none" 
	d="
M198.177475,126.070961 
	C197.097504,126.360115 195.056900,126.802307 195.075089,126.916512 
	C196.085052,133.256149 188.598083,134.006256 186.756927,139.083374 
	C185.075348,140.589706 183.982803,141.783218 182.890259,142.976730 
	C182.268692,142.116562 181.575089,141.298752 181.039566,140.388000 
	C179.629181,137.989426 178.184250,135.601654 176.949432,133.112213 
	C175.858871,130.913544 175.033081,128.583542 173.836853,125.700516 
	C170.610794,127.214531 171.302368,133.399261 165.979599,135.176071 
	C163.507080,136.001419 163.003708,142.725769 161.607666,146.775970 
	C161.146393,146.677826 160.685120,146.579666 160.223831,146.481506 
	C159.543152,143.080124 158.862473,139.678726 158.566895,135.955688 
	C159.184082,134.460083 159.416153,133.286118 159.648224,132.112167 
	C162.439804,132.112167 165.231369,132.112167 167.721405,132.112167 
	C168.942841,126.336479 170.012680,121.277626 171.194687,115.688347 
	C171.920975,115.651184 173.477600,115.571533 175.226730,115.482033 
	C176.235382,120.479248 177.105927,125.429832 178.345505,130.286209 
	C178.544815,131.067062 180.362350,131.826508 181.480927,131.906128 
	C184.577835,132.126541 187.700668,131.982452 190.611633,131.982452 
	C191.273285,129.545609 191.838318,127.464569 192.983093,125.182457 
	C194.008362,124.654465 194.453903,124.327553 195.271744,123.997940 
	C196.742004,123.347893 197.839951,122.700531 198.965912,122.027802 
	C198.993912,122.002441 199.049667,121.951447 199.049667,121.951447 
	C199.478088,123.163330 199.906509,124.375214 199.812866,125.814407 
	C198.919708,126.051460 198.548599,126.061211 198.177475,126.070961 
M186.061401,135.983917 
	C185.679031,135.830460 185.296646,135.677002 184.914276,135.523544 
	C184.813828,135.778885 184.713379,136.034241 184.612930,136.289581 
	C185.106812,136.334259 185.600677,136.378937 186.061401,135.983917 
z"/>
<path fill="#DE4F52" opacity="1.000000" stroke="none" 
	d="
M194.676331,98.470734 
	C200.774765,98.423363 207.023239,98.696136 213.496155,99.223701 
	C215.096939,103.042618 216.331894,106.670143 217.893280,110.151260 
	C219.197922,113.059967 218.052902,114.588959 215.466400,115.528343 
	C212.935974,116.447365 211.973877,115.270500 210.587952,112.983406 
	C208.739883,109.933678 205.693756,107.550507 202.950485,105.119995 
	C200.386200,102.848045 197.545441,100.888123 194.676331,98.470734 
z"/>
<path fill="#8656DF" opacity="1.000000" stroke="none" 
	d="
M225.811279,130.001816 
	C222.089890,132.828751 218.368484,135.655701 214.335312,138.719467 
	C219.330139,142.461823 216.024368,145.387222 213.245789,149.861633 
	C212.610672,145.262634 212.155945,141.969879 212.161316,138.170456 
	C212.472015,135.773956 212.322601,133.884109 212.173187,131.994278 
	C215.078186,130.530380 219.251816,133.527481 222.018829,129.132843 
	C223.282516,127.635231 223.918976,126.377480 224.804565,124.627342 
	C225.210037,126.791992 225.510666,128.396896 225.811279,130.001816 
z"/>
<path fill="#8656DF" opacity="1.000000" stroke="none" 
	d="
M125.354080,134.002838 
	C124.696045,133.513687 124.425079,133.019241 124.179993,132.230011 
	C125.657837,130.422531 127.109802,128.909866 129.119965,126.988663 
	C130.308868,124.069527 130.939575,121.558914 131.436493,119.580917 
	C132.152298,121.368896 133.057449,123.629845 133.962616,125.890793 
	C134.254089,126.664360 134.722305,127.418724 134.808731,128.214569 
	C135.426422,133.902420 138.335129,132.035233 141.597748,130.142105 
	C140.565964,135.073792 136.257935,135.641983 131.874390,131.523621 
	C129.784225,132.366714 127.762688,133.182129 125.354080,134.002838 
z"/>
<path fill="#DDB096" opacity="1.000000" stroke="none" 
	d="
M133.978516,125.439735 
	C133.057449,123.629845 132.152298,121.368896 131.436493,119.580917 
	C130.939575,121.558914 130.308868,124.069527 129.367004,126.776947 
	C129.683517,118.815598 130.311188,110.657448 130.938843,102.499298 
	C131.473587,102.476570 132.008331,102.453842 132.543076,102.431114 
	C133.026855,109.950302 133.510635,117.469490 133.978516,125.439735 
z"/>
<path fill="#DDAF96" opacity="1.000000" stroke="none" 
	d="
M159.368835,131.873322 
	C159.416153,133.286118 159.184082,134.460083 158.632217,135.529404 
	C158.315948,135.100800 158.274033,134.782806 158.044037,133.935776 
	C157.569031,133.186493 157.236664,132.972229 156.904297,132.757965 
	C153.839005,132.235321 150.773727,131.712692 147.401474,131.137711 
	C147.138672,130.331985 146.747116,129.131454 146.128754,127.399521 
	C146.241577,124.927055 146.581223,122.985985 146.920883,121.044922 
	C147.276062,122.633629 147.631241,124.222336 148.110138,126.364365 
	C148.894455,125.398560 149.463547,124.697792 150.523209,123.392944 
	C152.258530,127.584496 153.667770,131.967468 159.368835,131.873322 
M149.931381,128.850128 
	C150.167511,129.125244 150.403641,129.400360 150.639771,129.675476 
	C150.759125,129.416840 151.045471,129.023911 150.966049,128.925140 
	C150.741928,128.646439 150.367615,128.488495 149.931381,128.850128 
z"/>
<path fill="#8656DF" opacity="1.000000" stroke="none" 
	d="
M147.161072,120.785667 
	C146.581223,122.985985 146.241577,124.927055 145.856155,127.160202 
	C144.794083,128.227036 143.777771,129.001816 142.405045,129.855560 
	C139.312546,125.758163 140.647934,121.777443 142.964920,118.085648 
	C143.536911,117.174278 145.399094,117.072647 146.668182,116.598785 
	C146.912552,117.907990 147.156906,119.217201 147.161072,120.785667 
z"/>
<path fill="#D7A99B" opacity="1.000000" stroke="none" 
	d="
M225.926910,130.323975 
	C225.510666,128.396896 225.210037,126.791992 224.804565,124.627342 
	C223.918976,126.377480 223.282516,127.635231 222.310272,128.950745 
	C222.477936,125.373314 222.981415,121.738121 223.484894,118.102928 
	C223.961273,118.085686 224.437668,118.068451 224.914062,118.051208 
	C225.627899,121.129745 226.219345,124.244308 227.110153,127.270760 
	C227.520309,128.664276 228.516602,129.885284 229.654602,131.211105 
	C230.061584,131.570648 230.061066,131.903610 230.005722,132.479523 
	C228.648102,132.030365 227.345337,131.338257 225.926910,130.323975 
z"/>
<path fill="#D6A89C" opacity="1.000000" stroke="none" 
	d="
M194.899445,124.000641 
	C194.453903,124.327553 194.008362,124.654465 193.280090,124.991127 
	C193.772629,118.837097 194.547897,112.673317 195.323166,106.509544 
	C195.930939,106.538841 196.538712,106.568146 197.146484,106.597450 
	C197.146484,108.826988 197.146484,111.056534 196.737305,113.905907 
	C195.924042,117.017365 195.519974,119.508995 195.042175,122.329178 
	C194.945435,123.105370 194.922440,123.553009 194.899445,124.000641 
z"/>
<path fill="#E3B691" opacity="1.000000" stroke="none" 
	d="
M211.879898,131.683624 
	C212.322601,133.884109 212.472015,135.773956 212.307281,137.848022 
	C211.686356,136.906830 211.379608,135.781403 210.948227,134.024414 
	C210.520218,133.180176 210.216812,132.967468 209.913422,132.754761 
	C208.450485,132.684509 206.947937,132.364899 205.531891,132.589828 
	C200.912888,133.323563 198.488297,131.512238 198.220047,126.445251 
	C198.548599,126.061211 198.919708,126.051460 199.569092,126.051201 
	C199.769028,130.133850 201.840454,131.476151 205.729691,131.036545 
	C207.644852,130.820053 209.632019,131.240662 211.879898,131.683624 
z"/>
<path fill="#8656DF" opacity="1.000000" stroke="none" 
	d="
M195.115921,122.000618 
	C195.519974,119.508995 195.924042,117.017365 196.546082,114.234634 
	C201.893066,114.977837 199.182053,118.490852 199.051941,121.569305 
	C199.049667,121.951447 198.993912,122.002441 198.585190,122.011559 
	C197.156281,122.013992 196.136108,122.007309 195.115921,122.000618 
z"/>
<path fill="#DBAD98" opacity="1.000000" stroke="none" 
	d="
M182.917694,143.388794 
	C183.982803,141.783218 185.075348,140.589706 186.430923,139.274628 
	C186.472229,143.270981 186.250473,147.388916 186.028732,151.506836 
	C185.518463,151.537842 185.008194,151.568832 184.497925,151.599823 
	C183.980331,149.000168 183.462723,146.400497 182.917694,143.388794 
z"/>
<path fill="#5BD0FB" opacity="1.000000" stroke="none" 
	d="
M124.940109,140.744293 
	C124.474503,141.268600 123.984756,141.518753 123.245468,141.885071 
	C122.622673,141.616028 122.249420,141.230820 121.876175,140.845627 
	C122.679939,140.481522 123.483704,140.117432 124.517899,139.849609 
	C124.804199,140.120651 124.860077,140.295395 124.940109,140.744293 
z"/>
<path fill="#8656DF" opacity="1.000000" stroke="none" 
	d="
M210.040726,132.988144 
	C210.216812,132.967468 210.520218,133.180176 210.862671,133.684387 
	C210.657150,133.724442 210.412582,133.472992 210.040726,132.988144 
z"/>
<path fill="#8656DF" opacity="1.000000" stroke="none" 
	d="
M157.052322,133.001648 
	C157.236664,132.972229 157.569031,133.186493 157.966492,133.705414 
	C157.754501,133.755173 157.477417,133.500244 157.052322,133.001648 
z"/>
<path fill="#FDFDFD" opacity="1.000000" stroke="none" 
	d="
M69.982132,85.650024 
	C69.681976,86.467735 69.369308,86.938812 69.022469,87.701279 
	C68.659576,88.772469 68.330856,89.552261 67.994888,90.662292 
	C67.466705,91.874947 66.945778,92.757378 66.194313,93.852516 
	C65.887329,90.689728 65.810883,87.314232 65.711334,83.481689 
	C67.383842,83.279808 70.250153,81.335373 69.982132,85.650024 
z"/>
<path fill="#DFCE93" opacity="1.000000" stroke="none" 
	d="
M107.608154,128.053864 
	C107.516464,129.341141 107.044907,130.678696 106.291382,132.243561 
	C99.953300,132.470871 93.897186,132.470871 87.841080,132.470871 
	C87.844086,131.977890 87.847099,131.484924 87.850113,130.991943 
	C92.470947,130.991943 97.116234,131.267334 101.700920,130.860214 
	C103.609909,130.690704 105.389732,129.066742 107.608154,128.053864 
z"/>
<path fill="#5AD5FC" opacity="1.000000" stroke="none" 
	d="
M121.248550,137.674591 
	C121.101326,137.179977 121.198853,136.744720 121.296379,136.309448 
	C121.639168,136.505219 121.981956,136.700989 122.324738,136.896759 
	C122.047600,137.175812 121.770454,137.454865 121.248550,137.674591 
z"/>
<path fill="#8556DF" opacity="1.000000" stroke="none" 
	d="
M195.042175,122.329178 
	C196.136108,122.007309 197.156281,122.013992 198.557190,122.036926 
	C197.839951,122.700531 196.742004,123.347893 195.271744,123.997940 
	C194.922440,123.553009 194.945435,123.105370 195.042175,122.329178 
z"/>
<path fill="#8556DF" opacity="1.000000" stroke="none" 
	d="
M186.077972,136.203766 
	C185.600677,136.378937 185.106812,136.334259 184.612930,136.289581 
	C184.713379,136.034241 184.813828,135.778885 184.914276,135.523544 
	C185.296646,135.677002 185.679031,135.830460 186.077972,136.203766 
z"/>
<path fill="#8656DF" opacity="1.000000" stroke="none" 
	d="
M149.991943,128.566544 
	C150.367615,128.488495 150.741928,128.646439 150.966049,128.925140 
	C151.045471,129.023911 150.759125,129.416840 150.639771,129.675476 
	C150.403641,129.400360 150.167511,129.125244 149.991943,128.566544 
z"/>
</svg>