<svg version="1.1" id="Layer_1" xmlns="http://www.w3.org/2000/svg" xmlns:xlink="http://www.w3.org/1999/xlink" x="0px" y="0px"
	 width="100%" viewBox="0 0 265 192" enable-background="new 0 0 265 192" xml:space="preserve">
<path fill="#5CC0F9" opacity="1.000000" stroke="none" 
	d="
M69.000000,1.000000 
	C85.354225,1.000000 101.708458,1.000000 118.517563,1.365542 
	C117.057343,4.884871 114.811424,7.893485 113.341751,11.242726 
	C112.337112,13.532198 112.415009,16.296696 111.589951,18.903633 
	C99.575912,19.616804 92.926964,25.505758 91.606613,36.019264 
	C86.911797,36.238701 83.927567,38.343479 82.820778,42.488708 
	C82.609169,43.281273 84.154999,44.543076 84.926193,46.005791 
	C85.820953,48.420929 86.450523,50.563629 87.598953,52.377888 
	C88.890770,54.418663 90.650604,56.163177 92.110664,58.389519 
	C88.950867,65.495995 85.887260,72.249519 82.471588,79.072899 
	C77.710709,80.551277 73.266632,81.859451 68.901695,83.392899 
	C63.022381,85.458382 57.204041,87.697441 50.996056,89.873604 
	C45.619141,88.753136 43.104000,92.086182 41.359570,95.718559 
	C39.486031,99.619797 35.855667,103.679741 40.265232,108.621284 
	C40.619087,109.326401 40.889709,109.695129 41.147392,110.497650 
	C41.043346,112.954506 40.952244,114.977554 40.470421,117.000793 
	C38.085804,118.122429 35.419762,118.758629 34.204407,120.442116 
	C24.530737,133.841934 15.181890,147.475876 5.575611,160.925293 
	C4.575631,162.325333 2.549839,162.992691 1.000000,164.000000 
	C1.000000,142.312439 1.000000,120.624878 1.328665,98.387955 
	C5.033655,93.345818 8.525686,88.934761 11.766490,84.346260 
	C26.630949,63.300392 41.497215,42.254978 56.201504,21.097282 
	C60.730385,14.580772 64.748184,7.709066 69.000000,1.000000 
z"/>
<path fill="#5AD7FC" opacity="1.000000" stroke="none" 
	d="
M227.000000,1.000001 
	C239.907532,1.000000 252.815063,1.000000 266.000000,1.000000 
	C266.000000,8.351859 266.000000,15.707192 265.658691,23.589708 
	C264.134521,25.205822 262.712799,26.125818 261.805054,27.409328 
	C250.338913,43.622150 239.038254,59.952801 227.480270,76.099442 
	C223.996475,80.966370 219.850494,85.359299 215.669983,89.877899 
	C207.536316,86.226082 199.740540,82.665718 192.087158,78.742462 
	C194.816391,73.022339 194.653641,67.890442 191.154648,62.921360 
	C190.116669,61.447254 189.414536,59.736652 188.889008,57.974182 
	C189.701050,57.366215 190.285324,56.989159 190.649033,56.460400 
	C199.283524,43.907768 208.010925,31.416489 216.456665,18.737703 
	C220.264862,13.020819 223.503143,6.924285 227.000000,1.000001 
z"/>
<path fill="#5CB8F8" opacity="1.000000" stroke="none" 
	d="
M68.531342,1.000000 
	C64.748184,7.709066 60.730385,14.580772 56.201504,21.097282 
	C41.497215,42.254978 26.630949,63.300392 11.766490,84.346260 
	C8.525686,88.934761 5.033655,93.345818 1.328665,97.919296 
	C1.000000,65.752609 1.000000,33.505222 1.000000,1.000000 
	C23.353567,1.000000 45.708126,1.000000 68.531342,1.000000 
M27.018990,7.156858 
	C22.537386,4.009121 19.438858,4.499527 16.580122,9.265121 
	C12.314049,14.432799 16.109734,18.639021 17.601604,23.350378 
	C15.590120,25.914139 13.578637,28.477900 11.341409,31.329386 
	C13.170727,32.786976 14.510557,33.854549 15.714411,34.813774 
	C16.315031,34.415421 16.483461,34.350311 16.585348,34.229214 
	C18.397184,32.075794 20.200937,29.915571 22.644964,28.039013 
	C24.670422,30.314972 26.695877,32.590931 29.263504,35.476112 
	C30.828995,33.939220 32.043980,32.746429 32.870964,31.934549 
	C30.506704,27.697144 28.632835,24.338648 27.345785,20.539419 
	C31.629234,16.271765 30.049324,12.063269 27.018990,7.156858 
z"/>
<path fill="#59E2FD" opacity="1.000000" stroke="none" 
	d="
M266.000000,86.000000 
	C266.000000,101.687561 266.000000,117.375122 265.643494,133.549240 
	C263.445984,135.822647 261.283112,137.379669 259.816437,139.433777 
	C250.557327,152.401260 241.346237,165.406281 232.354919,178.559967 
	C229.225616,183.137939 226.765656,188.173447 224.000000,193.000000 
	C211.312439,193.000000 198.624878,193.000000 185.482422,192.634491 
	C186.318176,190.029449 187.544632,187.749817 188.913651,185.559265 
	C191.312119,181.721451 194.905884,178.396759 194.466995,173.163208 
	C205.210907,173.681808 214.595825,170.817368 223.467392,165.795563 
	C226.485001,164.087402 227.884354,161.986298 227.964874,158.287872 
	C228.155746,149.520004 228.944977,140.765167 229.861420,132.003204 
	C231.484604,131.443390 233.252594,131.238098 233.914398,130.273712 
	C241.687515,118.946846 249.169434,107.418922 257.017181,96.145226 
	C259.580200,92.463287 262.981873,89.365135 266.000000,86.000000 
z"/>
<path fill="#59DDFD" opacity="1.000000" stroke="none" 
	d="
M266.000000,85.531342 
	C262.981873,89.365135 259.580200,92.463287 257.017181,96.145226 
	C249.169434,107.418922 241.687515,118.946846 233.914398,130.273712 
	C233.252594,131.238098 231.484604,131.443390 229.776886,131.588165 
	C229.405457,129.525681 229.636597,127.868195 229.546356,126.228386 
	C228.804153,112.742424 231.060623,98.115784 216.007843,89.969360 
	C219.850494,85.359299 223.996475,80.966370 227.480270,76.099442 
	C239.038254,59.952801 250.338913,43.622150 261.805054,27.409328 
	C262.712799,26.125818 264.134521,25.205822 265.658691,24.058445 
	C266.000000,44.354229 266.000000,64.708458 266.000000,85.531342 
z"/>
<path fill="#5BC6FA" opacity="1.000000" stroke="none" 
	d="
M1.000000,164.468658 
	C2.549839,162.992691 4.575631,162.325333 5.575611,160.925293 
	C15.181890,147.475876 24.530737,133.841934 34.204407,120.442116 
	C35.419762,118.758629 38.085804,118.122429 40.525097,117.423935 
	C43.072430,132.960312 45.824379,147.910538 51.791241,162.197021 
	C46.707775,168.901031 41.729141,175.287643 37.128109,181.935593 
	C34.740688,185.385147 33.021221,189.296997 31.000000,193.000000 
	C21.074755,193.000000 11.149509,193.000000 1.000000,193.000000 
	C1.000000,183.646957 1.000000,174.292145 1.000000,164.468658 
z"/>
<path fill="#5BCFFB" opacity="1.000000" stroke="none" 
	d="
M226.531342,1.000001 
	C223.503143,6.924285 220.264862,13.020819 216.456665,18.737703 
	C208.010925,31.416489 199.283524,43.907768 190.649033,56.460400 
	C190.285324,56.989159 189.701050,57.366215 188.662109,57.753746 
	C186.977585,56.064667 185.850479,54.435780 184.710327,52.443817 
	C184.502930,48.229252 183.572815,44.923782 178.730194,44.173126 
	C178.264145,43.690170 178.028717,43.384617 177.827896,42.661800 
	C177.552933,31.739557 174.099792,23.342442 163.010620,19.698586 
	C164.576813,16.480164 166.132507,13.639561 167.680969,10.795032 
	C169.457321,7.531841 171.227280,4.265165 173.000000,1.000002 
	C190.687561,1.000000 208.375122,1.000000 226.531342,1.000001 
z"/>
<path fill="#59E7FE" opacity="1.000000" stroke="none" 
	d="
M224.468658,193.000000 
	C226.765656,188.173447 229.225616,183.137939 232.354919,178.559967 
	C241.346237,165.406281 250.557327,152.401260 259.816437,139.433777 
	C261.283112,137.379669 263.445984,135.822647 265.643494,134.017899 
	C266.000000,153.581085 266.000000,173.162186 266.000000,193.000000 
	C252.313507,193.000000 238.625412,193.000000 224.468658,193.000000 
z"/>
<path fill="#5CC7FA" opacity="1.000000" stroke="none" 
	d="
M172.531342,1.000002 
	C171.227280,4.265165 169.457321,7.531841 167.680969,10.795032 
	C166.132507,13.639561 164.576813,16.480164 162.553329,19.704685 
	C148.894836,19.262516 142.219177,23.458845 136.434113,35.982796 
	C134.782425,35.649967 133.469940,35.330513 131.980545,34.703400 
	C128.141830,25.474718 121.848167,19.904606 112.008926,18.848820 
	C112.415009,16.296696 112.337112,13.532198 113.341751,11.242726 
	C114.811424,7.893485 117.057343,4.884871 118.986221,1.365542 
	C136.687561,1.000000 154.375122,1.000000 172.531342,1.000002 
z"/>
<path fill="#5BD7FC" opacity="1.000000" stroke="none" 
	d="
M143.000000,193.000000 
	C130.979111,193.000000 118.958214,193.000000 106.523804,192.649261 
	C107.624252,189.808640 109.216599,187.362442 110.633995,184.818741 
	C112.818443,180.898483 114.882988,176.911423 117.313171,172.766693 
	C127.809753,167.795181 137.991577,163.009674 148.502014,158.143402 
	C151.081909,156.628555 153.333221,155.194489 155.791183,154.054123 
	C158.062088,156.210251 160.126358,158.072662 161.961456,160.160095 
	C160.945633,162.726105 160.592514,165.348343 159.290695,167.355148 
	C155.441513,173.288773 151.106979,178.905838 147.191635,184.799103 
	C145.503754,187.339615 144.380020,190.254944 143.000000,193.000000 
z"/>
<path fill="#5ADCFD" opacity="1.000000" stroke="none" 
	d="
M143.468658,193.000000 
	C144.380020,190.254944 145.503754,187.339615 147.191635,184.799103 
	C151.106979,178.905838 155.441513,173.288773 159.290695,167.355148 
	C160.592514,165.348343 160.945633,162.726105 162.265305,160.301437 
	C172.158783,167.052902 182.387772,171.800980 194.008133,173.205597 
	C194.905884,178.396759 191.312119,181.721451 188.913651,185.559265 
	C187.544632,187.749817 186.318176,190.029449 185.013763,192.634491 
	C171.312439,193.000000 157.624878,193.000000 143.468658,193.000000 
z"/>
<path fill="#5CCCFB" opacity="1.000000" stroke="none" 
	d="
M31.468658,193.000000 
	C33.021221,189.296997 34.740688,185.385147 37.128109,181.935593 
	C41.729141,175.287643 46.707775,168.901031 52.036079,162.435181 
	C56.261940,171.669769 63.060368,176.336075 73.116791,176.627563 
	C74.180695,176.865997 75.142220,176.826828 76.420166,176.748993 
	C77.157135,176.761765 77.577682,176.813187 77.996292,177.254364 
	C77.220261,179.375519 76.541862,181.157928 75.652054,182.827667 
	C73.828064,186.250427 71.890694,189.612778 70.000000,193.000000 
	C57.312439,193.000000 44.624878,193.000000 31.468658,193.000000 
z"/>
<path fill="#5BD1FB" opacity="1.000000" stroke="none" 
	d="
M70.468658,193.000000 
	C71.890694,189.612778 73.828064,186.250427 75.652054,182.827667 
	C76.541862,181.157928 77.220261,179.375519 78.462585,177.209396 
	C91.620018,175.500702 104.309212,174.226700 116.998405,172.952698 
	C114.882988,176.911423 112.818443,180.898483 110.633995,184.818741 
	C109.216599,187.362442 107.624252,189.808640 106.055145,192.649261 
	C94.312439,193.000000 82.624878,193.000000 70.468658,193.000000 
z"/>
<path fill="#F5C2D5" opacity="1.000000" stroke="none" 
	d="
M117.313171,172.766693 
	C104.309212,174.226700 91.620018,175.500702 78.464523,176.819641 
	C77.577682,176.813187 77.157135,176.761765 76.139259,176.595490 
	C74.699417,176.437057 73.856911,176.393494 73.014404,176.349945 
	C63.060368,176.336075 56.261940,171.669769 52.297485,162.226135 
	C45.824379,147.910538 43.072430,132.960312 40.915817,117.423752 
	C40.952244,114.977554 41.043346,112.954506 41.221283,110.269676 
	C41.308109,109.607895 41.405487,109.139252 41.709862,108.987946 
	C44.948761,106.546806 47.736588,107.612511 50.735542,108.910278 
	C53.955872,110.303841 57.095146,110.284096 59.609726,107.074600 
	C62.110348,103.882950 61.513519,101.051338 59.197964,98.159370 
	C58.493065,97.278992 57.962448,96.259079 57.378567,95.344666 
	C58.412560,94.226852 59.317226,93.248848 60.678806,91.776894 
	C57.090427,91.039566 54.224983,90.450783 51.359535,89.862007 
	C57.204041,87.697441 63.022381,85.458382 68.901695,83.392899 
	C73.266632,81.859451 77.710709,80.551277 82.636520,79.386765 
	C92.958809,86.028465 103.969429,86.096252 115.367996,85.870377 
	C117.652100,87.333282 119.635155,88.633476 121.955261,90.133133 
	C125.277618,91.273979 128.299271,92.114532 131.241669,93.174957 
	C141.622910,96.916260 149.081070,103.480553 151.420288,114.540154 
	C150.701797,114.362991 150.215683,114.308060 149.334549,114.218788 
	C145.071747,113.703491 141.203979,113.222519 136.437363,112.629776 
	C136.674683,116.267639 136.860825,119.120934 137.034180,122.328758 
	C137.117905,123.144508 137.214417,123.605736 137.305206,124.363724 
	C137.836365,125.167229 138.373245,125.673973 138.929138,126.138519 
	C138.948135,126.096321 138.860596,126.066261 138.967468,126.300705 
	C139.381516,126.669365 139.688675,126.803581 140.007812,126.977463 
	C140.019775,127.017113 140.099243,126.993729 140.185913,127.136032 
	C140.429352,127.455727 140.626068,127.543549 141.103455,127.713135 
	C141.534241,127.935951 141.724335,127.987434 142.036774,128.216248 
	C142.363632,128.620926 142.618774,128.736206 143.127960,128.956848 
	C143.616928,129.450119 143.902512,129.725906 144.226532,130.327362 
	C144.821182,131.827225 145.377380,133.001434 145.968262,134.493591 
	C146.424911,135.541199 146.846863,136.270844 147.348236,137.242325 
	C147.951630,137.885086 148.475586,138.285980 149.214081,138.930573 
	C147.062134,140.863235 144.695618,142.552216 141.979507,144.490707 
	C143.986511,148.940735 146.079956,153.582458 148.173416,158.224182 
	C137.991577,163.009674 127.809753,167.795181 117.313171,172.766693 
M129.054504,113.228607 
	C127.172096,112.777992 124.692574,111.391167 123.558784,112.114296 
	C122.149002,113.013451 120.915955,115.853287 121.264412,117.505287 
	C122.031303,121.141014 120.668045,123.100548 117.866409,124.801720 
	C116.860405,125.412575 116.063721,126.368156 115.171509,127.166412 
	C115.423210,127.535545 115.674904,127.904671 115.926605,128.273804 
	C118.137375,126.867439 120.348145,125.461067 122.548317,124.061447 
	C124.479012,126.648064 126.264008,129.039490 128.048996,131.430908 
	C128.763824,130.119431 128.611008,129.464813 128.238297,128.978836 
	C125.289543,125.133957 123.642937,121.422058 128.325455,117.527649 
	C129.121613,116.865501 129.015518,115.118553 129.054504,113.228607 
z"/>
<path fill="#4969AE" opacity="1.000000" stroke="none" 
	d="
M111.589951,18.903633 
	C121.848167,19.904606 128.141830,25.474718 132.013443,35.109863 
	C133.105606,40.412064 134.245392,45.026558 130.865601,48.766510 
	C129.920334,46.887100 129.265991,44.543674 127.955788,44.088646 
	C119.272087,41.072788 110.478119,39.878807 101.503937,44.615700 
	C96.746574,42.355297 92.624443,38.889191 87.110138,40.764748 
	C88.778847,38.932510 90.382271,37.441643 91.985695,35.950775 
	C92.926964,25.505758 99.575912,19.616804 111.589951,18.903633 
M103.833199,39.108452 
	C105.226784,38.735264 106.620361,38.362072 108.013947,37.988884 
	C107.850136,37.576603 107.686325,37.164322 107.522514,36.752037 
	C105.974442,37.457180 104.426376,38.162323 102.306931,38.936813 
	C101.730713,39.244110 101.154495,39.551407 100.578285,39.858707 
	C100.724525,40.098179 100.870766,40.337654 101.017006,40.577129 
	C101.715721,40.098030 102.414436,39.618931 103.833199,39.108452 
M119.675247,35.053520 
	C116.844215,35.287292 114.013176,35.521065 111.182144,35.754837 
	C111.209419,36.034843 111.236694,36.314850 111.263969,36.594856 
	C114.480461,36.594856 117.696953,36.594856 120.913452,36.594852 
	C120.735184,36.114635 120.556915,35.634418 119.675247,35.053520 
z"/>
<path fill="#F4B321" opacity="1.000000" stroke="none" 
	d="
M50.996056,89.873604 
	C54.224983,90.450783 57.090427,91.039566 60.678806,91.776894 
	C59.317226,93.248848 58.412560,94.226852 57.378567,95.344666 
	C57.962448,96.259079 58.493065,97.278992 59.197964,98.159370 
	C61.513519,101.051338 62.110348,103.882950 59.609726,107.074600 
	C57.095146,110.284096 53.955872,110.303841 50.735542,108.910278 
	C47.736588,107.612511 44.948761,106.546806 41.424320,108.743439 
	C40.616936,108.528458 40.399467,108.406677 40.181999,108.284897 
	C35.855667,103.679741 39.486031,99.619797 41.359570,95.718559 
	C43.104000,92.086182 45.619141,88.753136 50.996056,89.873604 
z"/>
<path fill="#F6B421" opacity="1.000000" stroke="none" 
	d="
M115.066956,85.707672 
	C103.969429,86.096252 92.958809,86.028465 82.988586,79.316910 
	C85.887260,72.249519 88.950867,65.495995 92.363892,58.571571 
	C93.128136,59.312542 93.542976,60.224403 93.594688,61.288857 
	C92.703888,74.588860 101.659859,81.695847 112.942581,77.350220 
	C113.734039,80.380241 114.400497,83.043961 115.066956,85.707672 
z"/>
<path fill="#F4B321" opacity="1.000000" stroke="none" 
	d="
M93.957817,61.136265 
	C93.542976,60.224403 93.128136,59.312542 92.460068,58.218628 
	C90.650604,56.163177 88.890770,54.418663 87.598953,52.377888 
	C86.450523,50.563629 85.820953,48.420929 85.000839,45.713726 
	C85.099983,44.240776 85.160652,43.477295 85.250473,42.346939 
	C85.837532,43.355343 86.198219,43.974895 87.044861,45.429188 
	C87.044861,43.304226 87.044861,42.205170 87.044861,41.106117 
	C92.624443,38.889191 96.746574,42.355297 101.568138,44.982712 
	C103.324570,47.147137 104.663124,49.052376 105.627808,50.985672 
	C103.368446,53.221260 101.518944,55.460938 99.585762,57.625885 
	C98.111534,59.276844 96.531219,60.833073 94.806641,62.325024 
	C94.396057,61.857822 94.176933,61.497044 93.957817,61.136265 
z"/>
<path fill="#3F65A5" opacity="1.000000" stroke="none" 
	d="
M87.110138,40.764748 
	C87.044861,42.205170 87.044861,43.304226 87.044861,45.429188 
	C86.198219,43.974895 85.837532,43.355343 85.250473,42.346939 
	C85.160652,43.477295 85.099983,44.240776 84.964661,45.296322 
	C84.154999,44.543076 82.609169,43.281273 82.820778,42.488708 
	C83.927567,38.343479 86.911797,36.238701 91.606613,36.019264 
	C90.382271,37.441643 88.778847,38.932510 87.110138,40.764748 
z"/>
<path fill="#5BC6FA" opacity="1.000000" stroke="none" 
	d="
M40.265232,108.621284 
	C40.399467,108.406677 40.616936,108.528458 41.119946,108.894745 
	C41.405487,109.139252 41.308109,109.607895 41.234222,109.835876 
	C40.889709,109.695129 40.619087,109.326401 40.265232,108.621284 
z"/>
<path fill="#4969AF" opacity="1.000000" stroke="none" 
	d="
M151.652664,114.662384 
	C149.081070,103.480553 141.622910,96.916260 131.241669,93.174957 
	C128.299271,92.114532 125.277618,91.273979 122.182487,89.854507 
	C132.100052,83.128937 142.270676,77.287491 154.691711,78.224030 
	C154.143646,80.246849 153.609497,81.910599 153.092789,83.520012 
	C162.029449,87.696609 177.300598,86.342155 184.293488,80.730339 
	C185.105270,80.078873 185.021851,78.311882 185.773026,77.187874 
	C188.109985,77.910912 190.027359,78.508141 191.944748,79.105362 
	C199.740540,82.665718 207.536316,86.226082 215.669983,89.877899 
	C231.060623,98.115784 228.804153,112.742424 229.546356,126.228386 
	C229.636597,127.868195 229.405457,129.525681 229.407791,131.590027 
	C228.944977,140.765167 228.155746,149.520004 227.964874,158.287872 
	C227.884354,161.986298 226.485001,164.087402 223.467392,165.795563 
	C214.595825,170.817368 205.210907,173.681808 194.466995,173.163208 
	C182.387772,171.800980 172.158783,167.052902 162.494461,160.076416 
	C160.126358,158.072662 158.062088,156.210251 156.019836,153.766907 
	C158.027771,152.117706 160.001099,151.025116 162.002518,149.986633 
	C165.285095,148.283417 169.331039,147.307144 171.694687,144.761307 
	C174.807190,141.408875 177.983963,140.575333 182.397583,141.404419 
	C200.757919,142.249634 200.106583,144.493637 199.847687,128.779861 
	C199.845367,128.638916 199.708649,128.500183 199.398056,127.913368 
	C199.085312,128.997879 198.828781,129.724777 198.668182,130.472290 
	C197.939117,133.865860 198.258545,139.130325 196.279709,140.214096 
	C193.491638,141.741089 189.007996,140.172150 185.093872,139.595261 
	C183.137253,133.707489 178.492844,132.074280 173.500885,131.791992 
	C168.911072,131.532455 164.266220,132.246368 159.178787,132.560242 
	C157.893539,126.948006 160.128708,118.548492 151.652664,114.662384 
M187.435852,117.683662 
	C187.647400,116.889641 188.158920,116.035248 188.013580,115.313042 
	C187.596344,113.239799 186.913239,111.220055 186.334625,109.179283 
	C184.856781,109.606339 182.275131,109.785362 182.112747,110.508011 
	C181.666260,112.495041 182.044312,114.747177 182.450302,116.825218 
	C182.929367,119.277351 183.779816,121.656921 184.400192,123.826439 
	C185.259155,123.244347 186.866089,122.155388 188.490295,121.054718 
	C188.165314,120.358353 187.698914,119.358940 187.435852,117.683662 
z"/>
<path fill="#F2C1D5" opacity="1.000000" stroke="none" 
	d="
M192.087158,78.742462 
	C190.027359,78.508141 188.109985,77.910912 185.607300,76.981735 
	C183.311096,72.468307 181.600159,68.286819 179.955017,63.748795 
	C180.090149,60.959126 180.159515,58.526001 180.535278,56.019211 
	C182.135574,54.899326 183.429474,53.853107 184.723389,52.806892 
	C185.850479,54.435780 186.977585,56.064667 188.331604,57.913986 
	C189.414536,59.736652 190.116669,61.447254 191.154648,62.921360 
	C194.653641,67.890442 194.816391,73.022339 192.087158,78.742462 
z"/>
<path fill="#B569C9" opacity="1.000000" stroke="none" 
	d="
M18.223625,23.045816 
	C16.109734,18.639021 12.314049,14.432799 17.016365,9.250563 
	C17.912529,9.919506 18.372448,10.603007 18.900406,11.604329 
	C20.311359,13.634393 21.654272,15.346637 23.234688,17.298162 
	C24.567781,18.685013 25.663374,19.832584 26.758965,20.980154 
	C28.632835,24.338648 30.506704,27.697144 32.870964,31.934549 
	C32.043980,32.746429 30.828995,33.939220 29.263504,35.476112 
	C26.695877,32.590931 24.670422,30.314972 22.177368,27.618336 
	C20.547722,25.813709 19.385674,24.429764 18.223625,23.045816 
z"/>
<path fill="#A649BD" opacity="1.000000" stroke="none" 
	d="
M17.912615,23.198097 
	C19.385674,24.429764 20.547722,25.813709 21.858101,27.477234 
	C20.200937,29.915571 18.397184,32.075794 16.585348,34.229214 
	C16.483461,34.350311 16.315031,34.415421 15.714411,34.813774 
	C14.510557,33.854549 13.170727,32.786976 11.341409,31.329386 
	C13.578637,28.477900 15.590120,25.914139 17.912615,23.198097 
z"/>
<path fill="#6A26A1" opacity="1.000000" stroke="none" 
	d="
M18.832367,11.286510 
	C18.372448,10.603007 17.912529,9.919506 17.259087,8.984098 
	C19.438858,4.499527 22.537386,4.009121 27.051235,7.876618 
	C26.685295,9.471135 26.287111,10.345892 25.455708,11.145967 
	C22.959114,11.143027 20.895741,11.214768 18.832367,11.286510 
z"/>
<path fill="#A64ABD" opacity="1.000000" stroke="none" 
	d="
M25.888927,11.220650 
	C26.287111,10.345892 26.685295,9.471135 27.150703,8.231889 
	C30.049324,12.063269 31.629234,16.271765 27.052376,20.759787 
	C25.663374,19.832584 24.567781,18.685013 23.302990,16.965141 
	C24.052170,14.668776 24.970549,12.944713 25.888927,11.220650 
z"/>
<path fill="#F3C1D5" opacity="1.000000" stroke="none" 
	d="
M136.773285,35.996174 
	C142.219177,23.458845 148.894836,19.262516 162.539642,20.080772 
	C174.099792,23.342442 177.552933,31.739557 177.501343,42.563309 
	C174.341080,41.281918 171.830292,40.490749 169.504395,43.926922 
	C169.006241,44.662876 166.446594,44.629200 165.175476,44.114006 
	C157.264328,40.907551 149.422012,42.005402 141.744705,44.556858 
	C140.110962,45.099812 139.169617,47.726246 137.637680,49.117016 
	C133.579590,44.725166 135.173523,40.360806 136.773285,35.996174 
z"/>
<path fill="#F6B320" opacity="1.000000" stroke="none" 
	d="
M137.909286,49.392803 
	C139.169617,47.726246 140.110962,45.099812 141.744705,44.556858 
	C149.422012,42.005402 157.264328,40.907551 165.175476,44.114006 
	C166.446594,44.629200 169.006241,44.662876 169.504395,43.926922 
	C171.830292,40.490749 174.341080,41.281918 177.466736,42.980576 
	C178.028717,43.384617 178.264145,43.690170 178.801331,44.535069 
	C179.043945,48.282482 178.984787,51.490551 178.644104,54.907444 
	C176.884323,57.702980 175.406052,60.289692 173.909897,62.908028 
	C173.891998,62.939651 173.934326,62.998753 173.693665,63.140060 
	C173.269760,63.791256 173.086487,64.301140 172.805725,64.843109 
	C172.708237,64.875206 172.638092,65.068123 172.258789,65.015076 
	C169.373856,61.110588 166.868225,57.259155 164.630264,53.819145 
	C157.422485,56.220268 150.215500,58.621128 142.843658,60.708679 
	C141.088959,56.727852 139.499115,53.060329 137.909286,49.392803 
z"/>
<path fill="#A794A3" opacity="1.000000" stroke="none" 
	d="
M178.925613,54.698620 
	C178.984787,51.490551 179.043945,48.282482 179.031982,44.712471 
	C183.572815,44.923782 184.502930,48.229252 184.710327,52.443817 
	C183.429474,53.853107 182.135574,54.899326 180.434860,55.692619 
	C179.660568,55.192669 179.293091,54.945644 178.925613,54.698620 
z"/>
<path fill="#5CCBF9" opacity="1.000000" stroke="none" 
	d="
M137.637680,49.117016 
	C139.499115,53.060329 141.088959,56.727852 142.822693,61.082550 
	C144.954468,68.304962 148.005096,73.941696 155.140625,76.231674 
	C155.162399,76.320183 155.223846,76.491821 155.102814,76.838333 
	C154.889740,77.411552 154.797668,77.638260 154.705612,77.864960 
	C142.270676,77.287491 132.100052,83.128937 121.845436,89.655045 
	C119.635155,88.633476 117.652100,87.333282 115.367996,85.870377 
	C114.400497,83.043961 113.734039,80.380241 112.997719,77.047195 
	C112.948509,75.968285 112.969154,75.558708 113.338768,75.069153 
	C120.981873,71.792145 124.764168,65.755981 127.286041,58.225960 
	C128.648468,55.032906 129.750793,52.104454 130.853134,49.176003 
	C134.245392,45.026558 133.105606,40.412064 132.190338,35.417519 
	C133.469940,35.330513 134.782425,35.649967 136.434113,35.982796 
	C135.173523,40.360806 133.579590,44.725166 137.637680,49.117016 
z"/>
<path fill="#F6B41D" opacity="1.000000" stroke="none" 
	d="
M182.061630,141.175140 
	C177.983963,140.575333 174.807190,141.408875 171.694687,144.761307 
	C169.331039,147.307144 165.285095,148.283417 162.002518,149.986633 
	C160.001099,151.025116 158.027771,152.117706 155.813171,153.473206 
	C153.333221,155.194489 151.081909,156.628555 148.502014,158.143402 
	C146.079956,153.582458 143.986511,148.940735 141.979507,144.490707 
	C144.695618,142.552216 147.062134,140.863235 149.144318,138.677994 
	C148.329620,137.787979 147.799210,137.394226 147.268814,137.000473 
	C146.846863,136.270844 146.424911,135.541199 145.983429,134.123062 
	C145.371948,132.290268 144.780014,131.145981 144.188080,130.001694 
	C143.902512,129.725906 143.616928,129.450119 142.986877,128.804779 
	C142.428223,128.250885 142.185562,128.118774 141.914444,128.038925 
	C141.724335,127.987434 141.534241,127.935951 140.991638,127.603622 
	C140.474686,127.187637 140.294724,127.077957 140.099243,126.993729 
	C140.099243,126.993729 140.019775,127.017113 139.854828,126.789536 
	C139.450699,126.334427 139.174271,126.169197 138.860596,126.066261 
	C138.860596,126.066261 138.948135,126.096321 138.845581,125.877258 
	C138.265656,125.127785 137.788284,124.597374 137.310928,124.066963 
	C137.214417,123.605736 137.117905,123.144508 137.266724,122.028580 
	C137.838196,119.465004 138.164337,117.556129 138.415680,116.085060 
	C142.453156,115.431313 146.091370,114.842216 149.729584,114.253128 
	C150.215683,114.308060 150.701797,114.362991 151.420288,114.540154 
	C160.128708,118.548492 157.893539,126.948006 159.178787,132.560242 
	C164.266220,132.246368 168.911072,131.532455 173.500885,131.791992 
	C178.492844,132.074280 183.137253,133.707489 184.913147,139.918808 
	C183.945801,140.774414 183.003708,140.974777 182.061630,141.175140 
z"/>
<path fill="#5BD1FB" opacity="1.000000" stroke="none" 
	d="
M73.116791,176.627548 
	C73.856911,176.393494 74.699417,176.437057 75.822830,176.634125 
	C75.142220,176.826828 74.180695,176.865997 73.116791,176.627548 
z"/>
<path fill="#596FAE" opacity="1.000000" stroke="none" 
	d="
M129.190369,113.550690 
	C129.015518,115.118553 129.121613,116.865501 128.325455,117.527649 
	C123.642937,121.422058 125.289543,125.133957 128.238297,128.978836 
	C128.611008,129.464813 128.763824,130.119431 128.048996,131.430908 
	C126.264008,129.039490 124.479012,126.648064 122.548317,124.061447 
	C120.348145,125.461067 118.137375,126.867439 115.926605,128.273804 
	C115.674904,127.904671 115.423210,127.535545 115.171509,127.166412 
	C116.063721,126.368156 116.860405,125.412575 117.866409,124.801720 
	C120.668045,123.100548 122.031303,121.141014 121.264412,117.505287 
	C120.915955,115.853287 122.149002,113.013451 123.558784,112.114296 
	C124.692574,111.391167 127.172096,112.777992 129.190369,113.550690 
z"/>
<path fill="#F5B21F" opacity="1.000000" stroke="none" 
	d="
M149.334549,114.218796 
	C146.091370,114.842216 142.453156,115.431313 138.415680,116.085060 
	C138.164337,117.556129 137.838196,119.465004 137.279510,121.674057 
	C136.860825,119.120934 136.674683,116.267639 136.437363,112.629776 
	C141.203979,113.222519 145.071747,113.703491 149.334549,114.218796 
z"/>
<path fill="#F5B21F" opacity="1.000000" stroke="none" 
	d="
M144.226532,130.327362 
	C144.780014,131.145981 145.371948,132.290268 145.948730,133.805084 
	C145.377380,133.001434 144.821182,131.827225 144.226532,130.327362 
z"/>
<path fill="#F5B21F" opacity="1.000000" stroke="none" 
	d="
M147.348236,137.242325 
	C147.799210,137.394226 148.329620,137.787979 148.929779,138.434311 
	C148.475586,138.285980 147.951630,137.885086 147.348236,137.242325 
z"/>
<path fill="#F5B21F" opacity="1.000000" stroke="none" 
	d="
M137.305206,124.363724 
	C137.788284,124.597374 138.265656,125.127785 138.826569,125.919464 
	C138.373245,125.673973 137.836365,125.167229 137.305206,124.363724 
z"/>
<path fill="#F5B21F" opacity="1.000000" stroke="none" 
	d="
M142.036774,128.216248 
	C142.185562,128.118774 142.428223,128.250885 142.783478,128.587311 
	C142.618774,128.736206 142.363632,128.620926 142.036774,128.216248 
z"/>
<path fill="#F5B21F" opacity="1.000000" stroke="none" 
	d="
M140.185913,127.136032 
	C140.294724,127.077957 140.474686,127.187637 140.750946,127.432297 
	C140.626068,127.543549 140.429352,127.455727 140.185913,127.136032 
z"/>
<path fill="#F5B21F" opacity="1.000000" stroke="none" 
	d="
M138.967468,126.300705 
	C139.174271,126.169197 139.450699,126.334427 139.842865,126.749886 
	C139.688675,126.803581 139.381516,126.669365 138.967468,126.300705 
z"/>
<path fill="#F5B31F" opacity="1.000000" stroke="none" 
	d="
M130.865601,48.766506 
	C129.750793,52.104454 128.648468,55.032906 126.881104,58.136005 
	C120.124931,56.134411 114.033791,53.958168 107.750076,51.613419 
	C107.236572,51.329090 106.915634,51.213268 106.434975,51.111130 
	C106.275246,51.124817 106.001678,50.957619 106.001678,50.957619 
	C104.663124,49.052376 103.324570,47.147137 101.921799,44.874886 
	C110.478119,39.878807 119.272087,41.072788 127.955788,44.088646 
	C129.265991,44.543674 129.920334,46.887100 130.865601,48.766506 
z"/>
<path fill="#2A5082" opacity="1.000000" stroke="none" 
	d="
M120.026947,35.103859 
	C120.556915,35.634418 120.735184,36.114635 120.913452,36.594856 
	C117.696953,36.594856 114.480461,36.594856 111.263969,36.594856 
	C111.236694,36.314850 111.209419,36.034843 111.182144,35.754837 
	C114.013176,35.521065 116.844215,35.287292 120.026947,35.103859 
z"/>
<path fill="#2A5082" opacity="1.000000" stroke="none" 
	d="
M102.878304,38.867462 
	C104.426376,38.162323 105.974442,37.457180 107.522514,36.752037 
	C107.686325,37.164322 107.850136,37.576603 108.013947,37.988884 
	C106.620361,38.362072 105.226784,38.735264 103.415070,39.055527 
	C102.996941,39.002602 102.878304,38.867462 102.878304,38.867462 
z"/>
<path fill="#2A5082" opacity="1.000000" stroke="none" 
	d="
M103.055046,39.071213 
	C102.414436,39.618931 101.715721,40.098030 101.017006,40.577129 
	C100.870766,40.337654 100.724525,40.098179 100.578285,39.858707 
	C101.154495,39.551407 101.730713,39.244110 102.592621,38.902138 
	C102.878304,38.867462 102.996941,39.002602 103.055046,39.071213 
z"/>
<path fill="#133745" opacity="1.000000" stroke="none" 
	d="
M112.989799,75.149132 
	C112.969154,75.558708 112.948509,75.968285 112.872726,76.680885 
	C101.659859,81.695847 92.703888,74.588860 93.594688,61.288857 
	C94.176933,61.497044 94.396057,61.857822 94.902695,62.694626 
	C99.186935,70.041016 104.842598,74.446236 112.989799,75.149132 
z"/>
<path fill="#F3C0D3" opacity="1.000000" stroke="none" 
	d="
M113.338768,75.069153 
	C104.842598,74.446236 99.186935,70.041016 95.094162,62.801048 
	C96.531219,60.833073 98.111534,59.276844 99.585762,57.625885 
	C101.518944,55.460938 103.368446,53.221260 105.627808,50.985672 
	C106.001678,50.957619 106.275246,51.124817 106.618484,51.300758 
	C107.288704,51.578438 107.615669,51.680176 107.942642,51.781921 
	C114.033791,53.958168 120.124931,56.134411 126.621010,58.400612 
	C124.764168,65.755981 120.981873,71.792145 113.338768,75.069153 
z"/>
<path fill="#F4B21E" opacity="1.000000" stroke="none" 
	d="
M154.691711,78.224030 
	C154.797668,77.638260 154.889740,77.411552 155.452637,76.982498 
	C162.286469,79.792610 167.534698,79.813164 170.630524,75.298668 
	C173.251617,71.476456 174.170441,66.486916 175.904419,61.676346 
	C176.019806,60.718533 176.073349,60.098331 176.187164,58.780167 
	C177.669250,60.912056 178.779251,62.508698 179.889236,64.105339 
	C181.600159,68.286819 183.311096,72.468307 185.187744,76.855927 
	C185.021851,78.311882 185.105270,80.078873 184.293488,80.730339 
	C177.300598,86.342155 162.029449,87.696609 153.092789,83.520012 
	C153.609497,81.910599 154.143646,80.246849 154.691711,78.224030 
z"/>
<path fill="#DCB4CC" opacity="1.000000" stroke="none" 
	d="
M187.334167,118.021591 
	C187.698914,119.358940 188.165314,120.358353 188.490295,121.054718 
	C186.866089,122.155388 185.259155,123.244347 184.400192,123.826439 
	C183.779816,121.656921 182.929367,119.277351 182.450302,116.825218 
	C182.044312,114.747177 181.666260,112.495041 182.112747,110.508011 
	C182.275131,109.785362 184.856781,109.606339 186.334625,109.179291 
	C186.913239,111.220055 187.596344,113.239799 188.013580,115.313042 
	C188.158920,116.035248 187.647400,116.889641 187.334167,118.021591 
z"/>
<path fill="#294F81" opacity="1.000000" stroke="none" 
	d="
M182.397583,141.404419 
	C183.003708,140.974777 183.945801,140.774414 185.068604,140.250504 
	C189.007996,140.172150 193.491638,141.741089 196.279709,140.214096 
	C198.258545,139.130325 197.939117,133.865860 198.668182,130.472290 
	C198.828781,129.724777 199.085312,128.997879 199.398056,127.913368 
	C199.708649,128.500183 199.845367,128.638916 199.847687,128.779861 
	C200.106583,144.493637 200.757919,142.249634 182.397583,141.404419 
z"/>
<path fill="#1E4056" opacity="1.000000" stroke="none" 
	d="
M179.955017,63.748795 
	C178.779251,62.508698 177.669250,60.912056 176.187164,58.780167 
	C176.073349,60.098331 176.019806,60.718533 175.672791,61.803871 
	C174.895462,62.471478 174.411636,62.673943 173.927795,62.876404 
	C175.406052,60.289692 176.884323,57.702980 178.644104,54.907444 
	C179.293091,54.945644 179.660568,55.192669 180.128464,55.766285 
	C180.159515,58.526001 180.090149,60.959126 179.955017,63.748795 
z"/>
<path fill="#60AEF3" opacity="1.000000" stroke="none" 
	d="
M25.455708,11.145967 
	C24.970549,12.944713 24.052170,14.668776 23.065487,16.725861 
	C21.654272,15.346637 20.311359,13.634393 18.900406,11.604330 
	C20.895741,11.214768 22.959114,11.143027 25.455708,11.145967 
z"/>
<path fill="#4968AD" opacity="1.000000" stroke="none" 
	d="
M155.118866,76.143158 
	C148.005096,73.941696 144.954468,68.304962 142.987549,61.395859 
	C150.215500,58.621128 157.422485,56.220268 164.630264,53.819145 
	C166.868225,57.259155 169.373856,61.110588 172.136200,65.389801 
	C168.645782,72.623482 163.171158,76.539482 155.118866,76.143158 
z"/>
<path fill="#143848" opacity="1.000000" stroke="none" 
	d="
M155.140625,76.231674 
	C163.171158,76.539482 168.645782,72.623482 172.515518,65.442856 
	C172.638092,65.068123 172.708237,64.875206 173.054184,64.716385 
	C173.578201,64.037964 173.756256,63.518360 173.934326,62.998753 
	C173.934326,62.998753 173.891998,62.939651 173.909897,62.908028 
	C174.411636,62.673943 174.895462,62.471478 175.610947,62.141487 
	C174.170441,66.486916 173.251617,71.476456 170.630524,75.298668 
	C167.534698,79.813164 162.286469,79.792610 155.573654,76.635986 
	C155.223846,76.491821 155.162399,76.320183 155.140625,76.231674 
z"/>
<path fill="#1E4056" opacity="1.000000" stroke="none" 
	d="
M173.693665,63.140060 
	C173.756256,63.518360 173.578201,64.037964 173.151672,64.684296 
	C173.086487,64.301140 173.269760,63.791256 173.693665,63.140060 
z"/>
<path fill="#F4B321" opacity="1.000000" stroke="none" 
	d="
M107.750076,51.613415 
	C107.615669,51.680176 107.288704,51.578438 106.778214,51.287071 
	C106.915634,51.213268 107.236572,51.329090 107.750076,51.613415 
z"/>
</svg>